<svg width="150" height="150" viewBox="0 0 150 150" fill="none" xmlns="http://www.w3.org/2000/svg">
<path d="M136.188 47.4685H7.68751C6.02991 47.4685 4.4402 48.127 3.2681 49.2991C2.096 50.4712 1.43752 52.0609 1.43752 53.7185V136.187H136.188C137.795 136.191 139.387 135.878 140.873 135.266C142.359 134.654 143.71 133.755 144.848 132.62C145.986 131.485 146.888 130.136 147.504 128.652C148.12 127.167 148.438 125.576 148.437 123.969V59.6873C148.438 58.0801 148.12 56.4886 147.504 55.0042C146.888 53.5197 145.986 52.1713 144.848 51.0363C143.71 49.9012 142.359 49.0019 140.873 48.3897C139.387 47.7774 137.795 47.4644 136.188 47.4685V47.4685Z" fill="#E79165"/>
<path d="M123.969 111.719V1.5625L56.6562 1.5625V111.719H123.969Z" fill="#84B749"/>
<path d="M62.75 102.531V16.875C65.1758 16.8585 67.4967 15.8833 69.2062 14.162C70.9157 12.4408 71.8751 10.1134 71.875 7.6875H108.656C108.656 10.1242 109.624 12.4611 111.347 14.184C113.07 15.907 115.407 16.875 117.844 16.875V102.531C115.407 102.531 113.07 103.499 111.347 105.222C109.624 106.945 108.656 109.282 108.656 111.719H71.875C71.8751 109.293 70.9157 106.965 69.2062 105.244C67.4967 103.523 65.1758 102.548 62.75 102.531V102.531Z" fill="#B5E08C"/>
<path d="M38.2812 68.8748C53.4863 68.8748 65.8125 56.5486 65.8125 41.3435C65.8125 26.1384 53.4863 13.8123 38.2812 13.8123C23.0762 13.8123 10.75 26.1384 10.75 41.3435C10.75 56.5486 23.0762 68.8748 38.2812 68.8748Z" fill="#FFDE76"/>
<path d="M38.2812 62.7498C50.1036 62.7498 59.6875 53.1658 59.6875 41.3435C59.6875 29.5212 50.1036 19.9373 38.2812 19.9373C26.4589 19.9373 16.875 29.5212 16.875 41.3435C16.875 53.1658 26.4589 62.7498 38.2812 62.7498Z" fill="#FFBA55"/>
<path d="M36.75 35.2188H47.4688V28.9688H41.2188V22.7188H34.9688V28.9688C33.9148 29.1857 32.9181 29.6214 32.0432 30.2479C31.1682 30.8743 30.4346 31.6774 29.8896 32.6053C29.3447 33.5332 29.0006 34.5651 28.8797 35.6344C28.7587 36.7036 28.8636 37.7863 29.1875 38.8125C29.719 40.3873 30.7389 41.7515 32.099 42.7069C33.459 43.6623 35.0883 44.1591 36.75 44.125H39.5625C39.7648 44.1207 39.9658 44.1574 40.1535 44.2329C40.3412 44.3083 40.5117 44.421 40.6547 44.564C40.7978 44.7071 40.9104 44.8776 40.9859 45.0653C41.0613 45.253 41.098 45.454 41.0938 45.6562C41.0938 46.0624 40.9324 46.4518 40.6453 46.739C40.3581 47.0262 39.9686 47.1875 39.5625 47.1875H29.0938V53.4375H35.3438V59.6875H41.5938V53.4375C42.6052 53.1852 43.5551 52.7307 44.3861 52.1013C45.2172 51.4719 45.9121 50.6807 46.429 49.7754C46.9458 48.8701 47.274 47.8695 47.3936 46.8339C47.5133 45.7984 47.4219 44.7493 47.125 43.75C46.5935 42.1752 45.5736 40.811 44.2136 39.8556C42.8535 38.9002 41.2242 38.4034 39.5625 38.4375H36.75C36.3356 38.4375 35.9382 38.2729 35.6451 37.9799C35.3521 37.6868 35.1875 37.2894 35.1875 36.875C35.1875 36.4606 35.3521 36.0632 35.6451 35.7701C35.9382 35.4771 36.3356 35.3125 36.75 35.3125V35.2188Z" fill="white"/>
<path d="M90.3125 71.9375C102.135 71.9375 111.719 65.0819 111.719 56.625C111.719 48.1681 102.135 41.3125 90.3125 41.3125C78.4902 41.3125 68.9062 48.1681 68.9062 56.625C68.9062 65.0819 78.4902 71.9375 90.3125 71.9375Z" fill="#84B749"/>
<path d="M93.375 32.156V13.8123H87.25V32.156H93.375Z" fill="#84B749"/>
<path d="M93.3438 99.4688V81.125H87.2188V99.4688H93.3438Z" fill="#B5E08C"/>
<path d="M136.188 71.8748V136.187C136.192 137.794 135.879 139.387 135.266 140.873C134.654 142.359 133.755 143.709 132.62 144.847C131.485 145.985 130.136 146.888 128.652 147.504C127.167 148.12 125.576 148.437 123.969 148.437H7.68752C6.02991 148.437 4.4402 147.779 3.2681 146.607C2.096 145.435 1.43752 143.845 1.43752 142.187V53.5935C1.43752 55.2511 2.096 56.8408 3.2681 58.0129C4.4402 59.185 6.02991 59.8435 7.68752 59.8435H123.969C127.175 59.8512 130.25 61.1153 132.534 63.3647C134.819 65.6141 136.13 68.6693 136.188 71.8748V71.8748Z" fill="#FFBF8E"/>
<path d="M127.031 87.2498H148.437V111.718H127.031C123.782 111.718 120.667 110.428 118.369 108.131C116.072 105.833 114.781 102.717 114.781 99.4685C114.781 96.2196 116.072 93.1038 118.369 90.8064C120.667 88.5091 123.782 87.2185 127.031 87.2185V87.2498Z" fill="#E8A374"/>
</svg>
