<svg width="150" height="150" viewBox="0 0 150 150" fill="none" xmlns="http://www.w3.org/2000/svg">
<path d="M89.0625 39.8433H131.25C133.847 39.8433 135.937 41.9339 135.937 44.5308C135.937 47.1276 133.847 49.2183 131.25 49.2183H89.0625C86.4656 49.2183 84.375 47.1276 84.375 44.5308C84.375 41.9339 86.4656 39.8433 89.0625 39.8433V39.8433Z" fill="#FFCA28"/>
<path d="M119.514 86.9951V89.0636C119.514 105.469 123.813 113.141 133.577 119.91H110.156H86.7188C96.4822 113.141 100.781 105.469 100.781 89.0636V86.9951H119.514Z" fill="#FFCA28"/>
<path d="M114.844 86.9934V91.4063C114.844 100.781 113.885 114.844 96.0938 114.844H92.7383C91.1867 116.479 89.367 117.985 87.3276 119.444C87.4602 119.651 87.4862 119.688 87.6297 119.911H110.156H133.575C123.812 113.142 119.513 105.468 119.513 89.0625V86.9934H114.844Z" fill="#ECB200"/>
<path d="M22.0784 142.969C16.3852 142.969 10.9842 138.327 11.8019 132.692L15.4127 107.813C16.2304 102.179 20.6358 100.158 25.6892 97.5364L37.5027 91.4067L46.8777 100.782H51.5651L60.9401 91.4067L72.831 97.5364C77.8914 100.145 82.2712 102.181 83.1075 107.813L86.8025 132.692C87.6388 138.324 82.2192 142.969 76.526 142.969H22.0784Z" fill="#E4EFF8"/>
<path d="M56.2534 105.468L51.5659 110.156L56.2534 128.906H60.9409L56.2534 110.156L60.9409 105.468H56.2534Z" fill="#C4DCF0"/>
<path d="M37.5035 91.4058L25.6886 97.5352C20.6352 100.157 16.2295 102.178 15.4118 107.812L11.8 132.691C10.9823 138.326 16.3836 142.968 22.0768 142.968H26.7643C21.0711 142.968 15.6698 138.326 16.4875 132.691L20.0993 107.812C20.917 102.178 25.3227 100.157 30.3761 97.5352L39.1056 93.0079L37.5035 91.4058Z" fill="#F5F9FB"/>
<path d="M60.941 91.4058L57.7503 94.5964L63.4541 97.5352C68.5145 100.144 72.8945 102.181 73.7309 107.812L77.4296 132.691C78.2659 138.323 72.846 142.968 67.1528 142.968H76.5278C82.221 142.968 87.6409 138.323 86.8046 132.691L83.1059 107.812C82.2696 102.181 77.8895 100.144 72.8291 97.5352L60.941 91.4058Z" fill="#C4DCF0"/>
<path d="M30.4716 96.094L39.8465 107.813L46.8777 100.782L51.5652 100.782L58.5963 107.813L67.9713 96.094L60.941 92.0342H37.5035L30.4716 96.094Z" fill="#549AD4"/>
<path d="M54.4361 103.651L56.9904 106.205C58.267 105.997 59.4963 105.665 60.6709 105.216L67.9722 96.0932L63.9746 93.7866C63.9746 96.972 58.5972 102.536 54.4361 103.651Z" fill="#3588CB"/>
<path d="M39.8472 84.3745V93.7495L46.8784 100.781H51.5476L58.5972 93.7495V84.3745H39.8472Z" fill="#FFBD8D"/>
<path d="M25.7841 60.9369V56.2506C25.7841 43.2663 36.2372 32.8132 49.2214 32.8132C62.2057 32.8132 72.6588 43.2663 72.6588 56.2506V60.937L25.7841 60.9369Z" fill="#427096"/>
<path d="M67.9684 68.1207C67.9684 78.4242 59.6078 86.7191 49.2228 86.7191C38.8378 86.7191 30.4772 78.4242 30.4772 68.1207V60.9381C41.9098 60.9381 52.5181 57.2604 58.5372 51.397C58.5966 54.0496 59.5841 56.4341 61.3422 58.1923C63.1004 59.9504 65.4849 60.9381 67.9699 60.9376L67.9684 68.1207Z" fill="#FFD1B5"/>
<path d="M30.4768 60.937V68.1193C30.4768 78.4228 38.8372 86.7183 49.2222 86.7183C50.018 86.7183 50.7967 86.6526 51.566 86.558C42.2976 85.4182 35.1643 77.6332 35.1643 68.1193V60.937H30.4768Z" fill="#F5F9FB"/>
<path d="M58.5926 51.8916V68.1193C58.5921 76.8121 52.6315 84.0556 44.5347 86.114C46.035 86.4954 47.5988 86.7183 49.2222 86.7183C59.6072 86.7183 67.9676 78.4228 67.9676 68.1193V60.937C65.4827 60.9375 63.1019 59.9486 61.3438 58.1904C59.6981 56.5448 58.7586 54.341 58.5926 51.8916Z" fill="#FFB98D"/>
<path d="M37.5034 92.033L30.4722 96.0933L39.8472 107.812L42.4519 105.207L36.8452 98.1999C35.1597 96.0933 35.9657 95.6278 36.4274 95.3612L42.1909 92.033H37.5034Z" fill="#F5F9FB"/>
<path d="M56.2534 105.469L49.2214 112.5L42.1895 105.469L46.8785 100.78H51.5673L56.2534 105.469Z" fill="#549AD4"/>
<path d="M53.1773 102.392C51.3509 105.216 48.7706 107.494 45.7157 108.993L47.6658 110.943C48.9173 110.883 50.1364 110.705 51.3096 110.412L56.2534 105.468L53.1773 102.392Z" fill="#3588CB"/>
<path d="M42.3082 128.906L46.8769 110.156L51.5652 110.157L56.2534 128.906L42.3082 128.906Z" fill="#549AD4"/>
<path d="M50.211 110.339C50.211 123.7 49.2222 124.334 43.2575 126.562C43.2575 128.109 43.1614 127.304 43.1614 128.906H56.2535L51.566 110.156L50.211 110.339Z" fill="#3588CB"/>
<path d="M46.8784 110.156L42.31 128.906H45.7157L50.2842 110.156H46.8784Z" fill="#F5F9FB"/>
<path d="M59.1831 119.531C55.2369 119.531 55.0488 125.85 51.5659 128.114V142.968H67.9722C72.6596 142.968 72.6596 128.906 67.9722 128.906H63.2847V126.768C63.329 121.875 61.5269 119.531 59.1831 119.531Z" fill="#FFD1B5"/>
<path d="M42.3082 128.906H51.5659V142.968H42.3082V128.906Z" fill="#C4DCF0"/>
<path d="M56.02 84.3745C55.0098 90.8551 50.645 96.1908 44.7315 98.6338L46.1415 100.044C46.389 100.054 46.628 100.094 46.8785 100.094C49.183 100.094 51.3794 99.6661 53.4153 98.9178L58.5972 93.7496V84.3745H56.02Z" fill="#FFA465"/>
<path d="M49.2222 32.812C47.6167 32.812 46.0478 32.9743 44.5347 33.2789C55.2567 35.4398 63.2847 44.8722 63.2847 56.2495V60.937H72.6597V56.2495C72.6597 43.2652 62.2065 32.812 49.2222 32.812Z" fill="#365B7A"/>
<path d="M49.2222 32.812C36.2379 32.812 25.7847 43.2652 25.7847 56.2495V60.937H30.4722V56.2495C30.4722 44.0566 39.6905 34.1 51.5659 32.931C50.7951 32.8551 50.0136 32.812 49.2222 32.812V32.812Z" fill="#F5F9FB"/>
<path d="M69.9314 60.937C69.4796 60.937 68.6166 61.1252 67.9676 61.3124V68.1193C67.9676 69.4717 67.8156 70.7872 67.5419 72.0561C68.2766 72.5161 69.0923 72.7748 69.9314 72.7748C72.7319 72.7748 75.0035 70.1242 75.0034 66.8559C75.0034 63.5877 72.7319 60.937 69.9314 60.937" fill="#FFB98D"/>
<path d="M30.4768 61.3124V68.1193C30.4768 69.4717 30.6288 70.7872 30.9025 72.0561C30.1678 72.5161 29.3522 72.7748 28.513 72.7748C25.7125 72.7748 23.441 70.1242 23.441 66.8559C23.441 63.5877 25.7125 60.937 28.513 60.937C28.9648 60.937 29.8278 61.1252 30.4768 61.3124Z" fill="#FFD1B5"/>
<path d="M59.1831 119.531C58.2076 119.531 57.4621 119.918 56.8394 120.533C57.9332 121.651 58.6248 123.714 58.5972 126.768V128.796C58.5972 131.25 60.9409 131.25 63.2847 131.25V126.768C63.329 121.875 61.5269 119.531 59.1831 119.531Z" fill="#FFB98D"/>
<path d="M63.2847 128.906C67.9721 128.906 67.9721 142.968 63.2847 142.968H67.9722C72.6596 142.968 72.6596 128.906 67.9722 128.906H63.2847Z" fill="#FFB98D"/>
<path d="M86.7152 138.281C84.1203 138.281 82.0312 136.19 82.0312 133.593V124.219C82.0312 121.622 84.1203 119.531 86.7152 119.531H133.597C136.192 119.531 138.281 121.622 138.281 124.219V133.593C138.281 136.19 136.192 138.281 133.597 138.281C117.97 138.281 102.343 138.281 86.7152 138.281V138.281Z" fill="#E4EFF8"/>
<path d="M131.25 119.531V121.875C131.25 131.25 117.187 133.594 84.375 133.594H82.0312C82.0312 136.191 84.1192 138.281 86.7142 138.281H91.4062H128.906H133.598C136.193 138.281 138.281 136.191 138.281 133.594V124.219C138.281 121.622 136.193 119.531 133.598 119.531H131.25Z" fill="#C4DCF0"/>
<path d="M124.222 128.906C126.817 128.906 128.906 130.995 128.906 133.59V138.284C128.906 140.879 126.817 142.968 124.222 142.968C121.627 142.968 119.538 140.879 119.538 138.284V133.59C119.538 130.995 121.627 128.906 124.222 128.906V128.906Z" fill="#FFD1B5"/>
<path d="M114.847 128.906C117.442 128.906 119.531 130.995 119.531 133.59V138.284C119.531 140.879 117.442 142.968 114.847 142.968C112.252 142.968 110.163 140.879 110.163 138.284V133.59C110.163 130.995 112.252 128.906 114.847 128.906V128.906Z" fill="#FFD1B5"/>
<path d="M114.844 138.286C114.844 140.021 113.9 141.514 112.505 142.323C113.195 142.724 113.989 142.969 114.848 142.969C117.443 142.969 119.531 140.881 119.531 138.286V133.589C119.531 130.994 117.443 128.906 114.848 128.906C113.989 128.906 113.195 129.151 112.505 129.552C113.9 130.361 114.844 131.854 114.844 133.589V138.286Z" fill="#FFB98D"/>
<path d="M105.472 128.906C108.067 128.906 110.156 130.995 110.156 133.59V138.284C110.156 140.879 108.067 142.968 105.472 142.968C102.877 142.968 100.788 140.879 100.788 138.284V133.59C100.788 130.995 102.877 128.906 105.472 128.906V128.906Z" fill="#FFD1B5"/>
<path d="M96.0972 128.906C98.6922 128.906 100.781 130.995 100.781 133.59V138.284C100.781 140.879 98.6922 142.968 96.0972 142.968C93.5023 142.968 91.4132 140.879 91.4132 138.284V133.59C91.4132 130.995 93.5023 128.906 96.0972 128.906V128.906Z" fill="#FFD1B5"/>
<path d="M100.781 86.9934V89.0625C100.781 89.977 100.717 90.769 100.69 91.6306C103.532 92.9759 106.731 93.75 110.138 93.75C113.55 93.75 116.759 92.9752 119.604 91.626C119.578 90.7658 119.513 89.9754 119.513 89.0625V86.9934H100.781Z" fill="#ECB200"/>
<path d="M131.217 49.2183V69.1426C131.217 80.179 121.816 89.0639 110.139 89.0639C98.4619 89.0639 89.0609 80.179 89.0609 69.1426V49.2183H131.217Z" fill="#FFCA28"/>
<path d="M100.781 86.9934V89.0625C100.781 105.468 96.4822 113.142 86.7188 119.911H91.4063C101.17 113.142 105.469 105.468 105.469 89.0625V86.9934H100.781Z" fill="#F5F9FB"/>
<path d="M121.843 49.2188V69.1406C121.843 78.6518 114.854 86.5489 105.45 88.5544C106.959 88.8765 108.523 89.0625 110.138 89.0625C121.815 89.0625 131.218 80.177 131.218 69.1406V49.2188L121.843 49.2188Z" fill="#ECB200"/>
<path d="M89.0625 49.2188V53.9062H131.218V49.2188H89.0625Z" fill="#ECB200"/>
<path d="M89.0625 49.2188V69.1406C89.0625 80.177 98.4607 89.0625 110.138 89.0625C110.931 89.0625 111.711 89.0147 112.482 88.9343C101.917 87.8377 93.75 79.4269 93.75 69.1406V49.2188H89.0625Z" fill="#F5F9FB"/>
<path d="M124.219 138.286C124.219 140.021 123.275 141.514 121.88 142.323C122.57 142.724 123.364 142.969 124.223 142.969C126.818 142.969 128.906 140.881 128.906 138.286V133.589C128.906 130.994 126.818 128.906 124.223 128.906C123.364 128.906 122.57 129.151 121.88 129.552C123.275 130.361 124.219 131.854 124.219 133.589V138.286Z" fill="#FFB98D"/>
<path d="M116.013 77.2309L110.228 74.0406L104.351 77.2712L105.49 70.5798L100.711 65.7825L107.2 64.8373L110.124 58.6418L112.995 64.7491L119.58 65.7173L114.866 70.437L116.013 77.2309Z" fill="#E4EFF8"/>
<path d="M112.779 64.2883C111.422 68.6107 108.563 72.3018 104.764 74.8398L104.352 77.2705L110.229 74.0387L112.994 75.5631C113.854 75.0645 114.681 74.5261 115.453 73.9197L114.867 70.4361L119.582 65.7165L112.994 64.7507L112.779 64.2883Z" fill="#C4DCF0"/>
<path d="M131.25 39.8438C131.25 44.5312 121.875 44.5312 107.227 44.5312H84.375C84.375 47.1281 86.4656 49.2187 89.0625 49.2187H131.25C133.847 49.2187 135.937 47.1281 135.937 44.5312C135.937 41.9344 133.847 39.8438 131.25 39.8438Z" fill="#ECB200"/>
<path d="M89.0625 39.8438C86.4656 39.8438 84.375 41.9344 84.375 44.5312C84.375 47.1281 86.4656 49.2187 89.0625 49.2187H93.75C91.1531 49.2187 89.0625 47.1281 89.0625 44.5312C89.0625 41.9344 91.1531 39.8438 93.75 39.8438H89.0625Z" fill="#F5F9FB"/>
<path d="M105.469 138.286C105.469 140.021 104.525 141.514 103.13 142.323C103.82 142.724 104.614 142.969 105.473 142.969C108.068 142.969 110.156 140.881 110.156 138.286V133.589C110.156 130.994 108.068 128.906 105.473 128.906C104.614 128.906 103.82 129.151 103.13 129.552C104.525 130.361 105.469 131.854 105.469 133.589V138.286Z" fill="#FFB98D"/>
<path d="M96.0937 138.286C96.0937 140.021 95.15 141.514 93.7546 142.323C94.4454 142.724 95.239 142.969 96.0983 142.969C98.6933 142.969 100.781 140.881 100.781 138.286V133.589C100.781 130.994 98.6933 128.906 96.0983 128.906C95.239 128.906 94.4455 129.151 93.7546 129.552C95.15 130.361 96.0937 131.854 96.0937 133.589V138.286Z" fill="#FFB98D"/>
<path d="M37.5115 4.68752C36.2242 4.69254 35.1622 5.7351 35.1573 7.02267V11.7158H30.5013C29.1996 11.7108 28.1431 12.7674 28.1482 14.0693C28.1533 15.364 29.2067 16.4095 30.5013 16.4044H35.1573V21.093C35.1521 22.3877 36.1975 23.4414 37.4921 23.4465C38.7938 23.4516 39.8503 22.3949 39.8452 21.093V16.4044H44.5698C45.8573 16.3994 46.8996 15.3569 46.9047 14.0693C46.9098 12.7746 45.8644 11.7209 44.5698 11.7158H39.8452V7.02267C39.8402 5.72795 38.8062 4.68245 37.5115 4.68752ZM110.146 11.7158C108.845 11.7108 107.788 12.7674 107.793 14.0693V21.093C107.788 22.3949 108.845 23.4516 110.146 23.4465C111.443 23.4439 112.491 22.3895 112.486 21.093V14.0693C112.491 12.7728 111.443 11.7184 110.146 11.7158ZM92.1866 18.7579C91.2146 19.6209 91.1304 21.1103 91.9988 22.0774L96.6868 27.3063C97.5487 28.2694 99.027 28.3534 99.9922 27.494C100.952 26.6326 101.036 25.1574 100.18 24.1928L95.492 18.9456C94.4249 17.8091 92.9647 18.0525 92.1866 18.7579V18.7579ZM120.113 24.1928C119.258 25.1587 119.344 26.634 120.305 27.494C121.27 28.3534 122.749 28.2694 123.611 27.3063L128.299 22.0774C129.168 21.1103 129.083 19.621 128.111 18.7579C126.943 17.7405 125.457 18.1908 124.806 18.9456L120.113 24.1928ZM67.9639 18.7212C66.6765 18.7262 65.6341 19.7688 65.6291 21.0563V23.4098H63.2942C61.9961 23.4022 60.939 24.4512 60.9365 25.7495C60.9314 27.0532 61.9907 28.1106 63.2942 28.103H65.6291V30.4381C65.624 31.7328 66.6693 32.7865 67.9639 32.7916C69.2656 32.7967 70.3221 31.74 70.3171 30.4381V28.103H72.6518C73.9536 28.1081 75.0101 27.0514 75.005 25.7495C75.0025 24.453 73.9482 23.4047 72.6518 23.4098H70.3171V21.0563C70.312 19.7616 69.2584 18.7161 67.9639 18.7212ZM23.4419 56.2208V60.7995C21.9738 62.3392 21.0888 64.5208 21.0888 66.8296C21.0888 71.1842 24.2353 75.1033 28.5145 75.1033C28.7873 75.1033 29.0566 75.0856 29.325 75.0528C30.8523 79.3595 33.757 83.0226 37.5107 85.5197V89.0499C37.1315 89.0476 36.7577 89.1367 36.4211 89.3109L24.6004 95.4371C22.1021 96.7336 19.6086 97.9264 17.4585 99.7274C15.3086 101.528 13.5847 104.095 13.0957 107.465L9.47893 132.351C8.95186 135.985 10.4815 139.349 12.8896 141.641C15.2978 143.933 18.5939 145.308 22.0779 145.308C40.2285 145.317 58.3842 145.308 76.5298 145.308C80.5036 145.308 84.2566 143.541 86.684 140.62H89.4766C90.4482 143.341 93.0602 145.308 96.0966 145.308C97.8923 145.308 99.5415 144.621 100.789 143.495C102.037 144.621 103.682 145.308 105.477 145.308C107.273 145.308 108.917 144.621 110.165 143.495C111.413 144.621 113.062 145.308 114.858 145.308C116.653 145.308 118.298 144.621 119.546 143.495C120.793 144.621 122.438 145.308 124.234 145.308C127.27 145.308 129.882 143.34 130.853 140.62H133.614C137.468 140.62 140.625 137.448 140.625 133.594V124.212C140.625 120.427 137.58 117.289 133.82 117.177C129.75 114.19 126.933 111.112 125.012 107.081C122.529 100.209 121.889 94.2018 121.862 88.4042C128.848 84.5647 133.578 77.3925 133.578 69.1141V51.1337C136.307 50.1673 138.284 47.5529 138.284 44.5083C138.284 40.6526 135.112 37.4617 131.256 37.4617H89.0737C85.2186 37.4617 82.0327 40.6526 82.0327 44.5083C82.0327 47.5408 84.0032 50.1443 86.7206 51.1199V69.1142C86.7206 77.3997 91.4588 84.5764 98.4543 88.4134C98.1221 94.7836 97.7297 101.837 95.3046 107.081C93.4381 110.997 90.7237 114.013 86.8397 116.92L85.425 107.465C84.9254 104.101 83.2089 101.531 81.0622 99.7274C78.9154 97.9237 76.4222 96.7294 73.9157 95.4371L62.0126 89.3108C61.6796 89.1392 61.311 89.0497 60.9368 89.0499V85.5197C64.6906 83.0227 67.5949 79.3594 69.1224 75.0528C69.3917 75.0856 69.6646 75.1033 69.9374 75.1033C74.2166 75.1033 77.3403 71.1842 77.3402 66.8296C77.3402 64.5232 76.4659 62.3434 75.0054 60.804V56.2208C75.0054 41.9752 63.4698 30.4381 49.2259 30.4381C34.9821 30.4381 23.4419 41.9752 23.4419 56.2208V56.2208ZM14.098 35.1267V37.4619H11.7449C10.4503 37.467 9.38477 38.549 9.38981 39.8438C9.39229 41.1331 10.4556 42.15 11.7449 42.155H14.098V44.5085C14.103 45.7978 15.1482 46.8411 16.4374 46.8436C17.732 46.8488 18.7855 45.8032 18.7906 44.5085V42.155H21.1253C22.4217 42.1602 23.476 41.1118 23.4785 39.8153C23.4837 38.5134 22.4271 37.4568 21.1253 37.4619H18.7906V35.1267C18.7855 33.832 17.732 32.7865 16.4374 32.7916C15.1482 32.7941 14.103 33.8373 14.098 35.1267V35.1267ZM70.3171 58.5742H67.8082C66.0051 58.5299 64.2748 57.7967 62.9967 56.5184C61.6772 55.1988 60.9365 53.3983 60.9365 51.5322C60.9897 50.7236 60.4502 49.8701 60.126 49.545C59.208 48.6396 57.7312 48.6458 56.8206 49.5592C51.5026 54.9401 41.4002 58.5746 30.4691 58.5746L28.1343 58.5888V56.2216C28.1343 44.4925 37.5058 35.157 49.2334 35.1569C60.9611 35.1568 70.3169 44.4923 70.317 56.2211L70.3171 58.5742ZM89.0735 42.155H131.256C132.595 42.155 133.614 43.1692 133.614 44.5084C133.614 45.8477 132.595 46.8436 131.256 46.8436H89.0735C87.7344 46.8436 86.7204 45.8477 86.7204 44.5084C86.7204 43.1692 87.7344 42.155 89.0735 42.155ZM91.4083 51.5322H128.889V69.1144C128.889 78.822 120.636 86.6966 110.146 86.6966C99.6571 86.6966 91.4083 78.822 91.4083 69.1144V51.5322ZM56.9764 55.5797C57.5602 57.1584 58.4799 58.6126 59.6913 59.8242C61.3257 61.4588 63.3973 62.5642 65.6291 63.0247V68.0933C65.6291 77.1311 58.3637 84.3615 49.2257 84.3615C40.0878 84.3615 32.8224 77.1312 32.8224 68.0933V63.217C42.1326 62.8304 50.7937 60.1548 56.9764 55.5797V55.5797ZM110.133 56.2757C109.221 56.2736 108.39 56.8004 108.004 57.6265L105.633 62.6768L100.372 63.4414C98.465 63.7227 97.6938 66.0582 99.0583 67.4203L102.986 71.3672L102.052 76.8662C101.729 78.7989 103.779 80.2517 105.495 79.3066L110.233 76.6968L114.889 79.2746C116.614 80.2281 118.674 78.7569 118.332 76.8158L117.38 71.2252L121.239 67.3516C122.61 65.9897 121.837 63.6469 119.925 63.3681L114.596 62.5898L112.262 57.6265C111.875 56.8004 111.045 56.2736 110.133 56.2757V56.2757ZM25.7767 66.8297C25.7767 64.8534 26.9248 63.5137 28.1248 63.2812C28.0982 65.6467 28.0716 68.8851 28.2583 70.3965C27.0149 70.232 25.7767 68.8741 25.7767 66.8297ZM70.3171 63.3041C71.5155 63.5389 72.6702 64.8558 72.6702 66.8297C72.6702 68.8741 71.5345 70.2321 70.2913 70.3965C70.371 69.64 70.3179 68.8718 70.3179 68.0934L70.3171 63.3041ZM110.133 64.1327L110.874 65.7216C111.206 66.4369 111.875 66.9376 112.655 67.054L114.628 67.3516L113.209 68.771C112.681 69.3097 112.444 70.0696 112.573 70.8131L112.917 72.8186L111.36 71.9715C110.659 71.5888 109.813 71.5888 109.112 71.9715L107.482 72.869L107.812 70.9505C107.936 70.204 107.692 69.4435 107.157 68.9084L105.67 67.4203L107.556 67.141C108.335 67.0247 109.005 66.524 109.337 65.8086L110.133 64.1327ZM42.18 87.8504C44.3838 88.627 46.7563 89.05 49.2257 89.05C51.6877 89.05 54.0505 88.6271 56.2485 87.855V92.7634L50.5901 98.4318H47.8569L42.18 92.7542V87.8504ZM103.115 90.3596C105.339 91.0252 107.698 91.3852 110.146 91.3852C112.595 91.3852 114.959 91.0253 117.183 90.3596C117.294 98.1269 118.404 104.123 120.772 109.091C122.24 112.169 124.184 114.806 126.568 117.172H93.7295C96.1139 114.806 98.0581 112.169 99.5253 109.091C101.893 104.123 103.004 98.1269 103.115 90.3596V90.3596ZM37.0617 94.2606L43.5672 100.767L40.0375 104.297L33.4954 96.115L37.0617 94.2606ZM61.3898 94.2606L64.9607 96.1058L58.414 104.297L54.8843 100.767L61.3898 94.2606ZM69.2046 98.2944L71.7546 99.6085C74.309 100.926 76.5317 102.051 78.0495 103.326C79.5672 104.602 80.4502 105.87 80.7872 108.139L82.3666 118.706C80.7424 120.003 79.6975 121.998 79.6975 124.214V133.596C79.6975 135.607 80.5594 137.43 81.9317 138.715C80.4492 139.871 78.481 140.62 76.5295 140.62H73.1784C73.647 139.144 73.8286 137.537 73.8286 135.931C73.8286 133.912 73.5398 131.914 72.7573 130.153C72.3658 129.272 71.8498 128.433 71.0635 127.745C70.2769 127.056 69.1544 126.55 67.9824 126.55H65.5744C65.5668 123.937 65.1598 121.763 64.123 120.08C63.0499 118.338 61.1458 117.172 59.1924 117.172C57.9872 117.172 56.892 117.608 56.0061 118.221L54.1657 110.863L56.2578 108.771L56.9399 109.453C57.9272 110.449 59.5627 110.362 60.4376 109.265L69.2046 98.2944ZM29.2515 98.3175L38.014 109.265C38.8883 110.358 40.5202 110.446 41.5071 109.453L42.1891 108.77L44.2859 110.867L40.3625 126.55H33.7746L34.2556 125.135C34.687 123.907 34.035 122.562 32.8043 122.14C31.582 121.721 30.2509 122.37 29.8286 123.592L28.2538 128.125C27.7205 129.65 28.8544 131.245 30.4696 131.243H39.9691V140.62H22.0779C19.8681 140.62 17.6197 139.687 16.108 138.248C14.5964 136.81 13.8262 135.025 14.1166 133.024L17.7332 108.139C18.0619 105.874 18.9455 104.6 20.4664 103.326C21.9872 102.052 24.2101 100.935 26.7658 99.6085L29.2515 98.3175ZM47.8569 103.121H50.5901L52.9386 105.46L49.2257 109.178L45.5083 105.46L47.8569 103.121ZM23.4419 112.484C22.1402 112.479 21.0837 113.536 21.0888 114.837C21.0938 116.132 22.1473 117.178 23.4419 117.173H32.8224C34.1098 117.168 35.1522 116.125 35.1573 114.837C35.1624 113.543 34.117 112.489 32.8224 112.484L23.4419 112.484ZM48.1911 114.586C48.8439 114.906 49.6079 114.906 50.2604 114.586L52.4305 123.281C51.9149 124.27 51.4021 125.119 50.9013 125.652C50.3619 126.227 49.9438 126.478 49.0884 126.55H45.1971L48.1911 114.586ZM68.4676 139.81C68.2727 140.249 68.0565 140.526 67.9733 140.614L53.9137 140.621V129.261C55.7042 127.623 56.0131 126.461 56.7519 125.118C57.3498 123.943 57.8661 122.934 58.2901 122.416C58.7144 121.898 58.7649 121.862 59.192 121.862L59.1922 121.861C59.5829 121.861 59.7415 121.885 60.1445 122.539C60.5476 123.193 60.9559 124.586 60.9364 126.751V128.908C60.9416 130.205 61.9978 131.251 63.2941 131.243L67.9733 131.253C68.053 131.343 68.2736 131.62 68.4676 132.059C68.8573 132.936 69.1408 134.434 69.1408 135.932C69.1408 137.43 68.8573 138.933 68.4676 139.81V139.81ZM86.7204 121.861H133.614C134.95 121.861 135.949 122.874 135.949 124.215V133.596C135.949 134.936 134.95 135.931 133.614 135.931H131.256V133.578C131.256 129.724 128.087 126.55 124.233 126.55C122.438 126.55 120.793 127.242 119.545 128.367C118.298 127.242 116.653 126.55 114.857 126.55C113.062 126.55 111.413 127.242 110.165 128.367C108.917 127.242 107.272 126.55 105.477 126.55C103.681 126.55 102.036 127.242 100.789 128.367C99.5412 127.242 97.8921 126.55 96.0963 126.55C92.2431 126.55 89.0735 129.724 89.0735 133.578V135.931H86.7204C85.3841 135.931 84.3855 134.936 84.3855 133.596V124.215C84.4936 122.701 85.4434 121.924 86.7204 121.861V121.861ZM44.6568 131.243H49.2257V140.62H44.6568V131.243ZM98.4536 133.578V138.285C98.4536 139.622 97.433 140.62 96.0959 140.62C94.7586 140.62 93.761 139.622 93.761 138.285V133.578C93.761 132.282 94.6979 131.303 96.034 131.243C97.433 131.243 98.4536 132.241 98.4536 133.578V133.578ZM107.812 133.578V138.285C107.812 139.622 106.814 140.62 105.477 140.62C104.14 140.62 103.142 139.622 103.142 138.285V133.578C103.142 132.282 104.079 131.303 105.415 131.243C106.814 131.243 107.812 132.241 107.812 133.578V133.578ZM117.192 133.578V138.285C117.192 139.622 116.195 140.62 114.858 140.62C113.52 140.62 112.518 139.622 112.518 138.285V133.578C112.518 132.282 113.455 131.303 114.794 131.243C116.195 131.243 117.192 132.241 117.192 133.578V133.578ZM126.569 133.578V138.285C126.569 139.622 125.571 140.62 124.234 140.62C122.897 140.62 121.899 139.622 121.899 138.285V133.578C121.899 132.282 122.836 131.303 124.172 131.243C125.571 131.243 126.569 132.241 126.569 133.578V133.578Z" fill="#333333"/>
</svg>
