<svg width="150" height="150" viewBox="0 0 150 150" fill="none" xmlns="http://www.w3.org/2000/svg">
<path fill-rule="evenodd" clip-rule="evenodd" d="M7.86531 5.61816H142.129C144.535 5.61816 146.504 7.58691 146.504 9.99248V84.4218C146.504 86.8268 144.535 88.7961 142.129 88.7961H7.86531C5.45974 88.7961 3.49597 86.8268 3.49597 84.4218V9.99248C3.49597 7.58691 5.45974 5.61816 7.86531 5.61816Z" fill="#BADCBE"/>
<path d="M142.129 89.9442H7.86532C4.82079 89.9442 2.34784 87.466 2.34784 84.4217V9.99243C2.34784 6.94819 4.8205 4.46997 7.86532 4.46997H142.129C145.174 4.46997 147.652 6.94819 147.652 9.99243V84.4217C147.652 87.466 145.174 89.9442 142.129 89.9442ZM7.86532 6.76655C6.08905 6.76655 4.64442 8.21616 4.64442 9.99273V84.4217C4.64442 86.1983 6.08905 87.6479 7.86532 87.6479H142.129C143.907 87.6479 145.356 86.1983 145.356 84.4217V9.99243C145.356 8.21587 143.907 6.76626 142.129 6.76626H7.86532V6.76655Z" fill="#395A7C"/>
<path d="M137.137 11.0627H12.8531V83.3513H137.137V11.0627Z" fill="#499B5A"/>
<path d="M137.137 84.4991H12.8531C12.2194 84.4991 11.705 83.985 11.705 83.351V11.0627C11.705 10.429 12.2194 9.91455 12.8531 9.91455H137.137C137.771 9.91455 138.285 10.429 138.285 11.0627V83.3513C138.285 83.985 137.771 84.4991 137.137 84.4991ZM14.001 82.2028H135.989V12.2108H14.001V82.2028Z" fill="#395A7C"/>
<path fill-rule="evenodd" clip-rule="evenodd" d="M34.8812 19.365H115.108C115.108 26.5817 121.021 32.4935 128.237 32.4935V61.9152C121.021 61.9152 115.108 67.8279 115.108 75.044H34.8812C34.8812 67.8279 28.9738 61.9152 21.7582 61.9152V32.4935C28.9738 32.4935 34.8812 26.5817 34.8812 19.365Z" fill="#BADCBE"/>
<path d="M115.108 76.1919H34.8811C34.2471 76.1919 33.733 75.6777 33.733 75.044C33.733 68.4405 28.3614 63.0636 21.7582 63.0636C21.1242 63.0636 20.6097 62.5492 20.6097 61.9155V32.4935C20.6097 31.8595 21.1242 31.3454 21.7582 31.3454C28.3614 31.3454 33.733 25.9682 33.733 19.365C33.733 18.731 34.2471 18.2166 34.8811 18.2166H115.108C115.742 18.2166 116.256 18.731 116.256 19.365C116.256 25.9682 121.633 31.3454 128.237 31.3454C128.871 31.3454 129.386 31.8595 129.386 32.4935V61.9152C129.386 62.5492 128.871 63.0633 128.237 63.0633C121.633 63.0633 116.256 68.4402 116.256 75.0437C116.256 75.6774 115.742 76.1919 115.108 76.1919ZM35.983 73.8956H114.007C114.562 66.934 120.127 61.3697 127.089 60.8139V33.5948C120.127 33.039 114.562 27.4747 114.007 20.5131H35.983C35.4266 27.4747 29.862 33.039 22.906 33.5948V60.8139C29.8623 61.37 35.4266 66.934 35.983 73.8956Z" fill="#395A7C"/>
<path d="M76.5328 57.3589C77.5819 57.1356 78.4341 56.6423 79.0939 55.8729C79.7534 55.1095 80.0812 54.2057 80.0812 53.156C80.0812 52.2311 79.8055 51.4263 79.2498 50.756C78.7046 50.0754 77.8004 49.5612 76.5378 49.1927L76.5328 57.3589ZM73.514 35.1334C72.6934 35.4237 72.0545 35.8966 71.5713 36.5616C71.0985 37.2322 70.8594 37.9644 70.8594 38.7697C70.8594 39.5027 71.078 40.1883 71.5087 40.822C71.9396 41.451 72.6155 41.9654 73.5093 42.3548L73.514 35.1334ZM73.4982 57.0108L73.5038 48.2877C70.7918 47.5034 68.8075 46.3192 67.5445 44.7393C66.2771 43.1549 65.6484 41.2479 65.6484 38.9933C65.6531 36.7178 66.3703 34.8056 67.8044 33.2622C69.2332 31.7145 71.1348 30.8312 73.514 30.6021V28.5557L76.5483 28.5609V30.6129C78.7716 30.883 80.5385 31.6462 81.8528 32.8989C83.1618 34.1455 83.9985 35.8134 84.3621 37.9022L79.0678 38.572C78.7403 36.9305 77.8986 35.8134 76.5483 35.2266L76.543 43.3676C79.894 44.277 82.18 45.4611 83.3909 46.8949C84.6058 48.3343 85.214 50.1841 85.2093 52.4335C85.2093 54.9428 84.4453 57.0627 82.9125 58.7766C81.3802 60.4916 79.2603 61.5562 76.5275 61.9775V65.8632L73.4935 65.8529L73.4982 62.008C71.1038 61.7065 69.1602 60.8186 67.6593 59.3276C66.1576 57.8314 65.2013 55.7218 64.7862 53.0101L70.2155 52.3813C70.4332 53.4935 70.8542 54.4497 71.4621 55.2598C72.0753 56.0654 72.7505 56.647 73.4982 57.0108Z" fill="#395A7C"/>
<g opacity="0.25">
<path opacity="0.25" fill-rule="evenodd" clip-rule="evenodd" d="M23.4829 87.5596L57.9747 53.0731L58.0165 53.0306L58.0631 52.9893L58.1103 52.9424L58.1619 52.9011L58.2084 52.8651L58.2609 52.8285L58.3069 52.7918H58.3122L58.3646 52.7558L58.4162 52.7247L58.4633 52.6937L58.5199 52.6626L58.5723 52.6313L58.6294 52.6055L58.6819 52.5745L58.7387 52.5534L58.7956 52.5331L58.8524 52.5068L58.9048 52.4863L58.9617 52.4707L59.0188 52.4494L59.0762 52.4341H59.0812L59.138 52.4183L59.1957 52.408L59.2582 52.3925L59.3097 52.3817L59.3721 52.3767L59.4292 52.3656L59.4916 52.3609L59.5488 52.3553L59.6112 52.3506H59.668L59.7304 52.3451L59.7875 52.3506H59.8502L59.9077 52.3553L59.9692 52.3609L60.0269 52.3656L60.0893 52.3767L60.1461 52.3817L60.203 52.3925L60.2601 52.408L60.3225 52.4183L60.3793 52.4341L60.4371 52.4494L60.4942 52.4707L60.551 52.4863L60.6082 52.5068L60.665 52.5331L60.7227 52.5534L60.7795 52.5745L60.8311 52.6055L60.8835 52.6313L60.9404 52.6626L60.9925 52.6937L61.0441 52.7247L61.0965 52.7558L61.1481 52.7918L61.2002 52.8285L61.2474 52.8651L61.2987 52.9011L61.3456 52.9424L61.3924 52.9893L61.4393 53.0306L61.4859 53.0731L70.2717 61.8578L85.4264 77.018L107.595 54.8494L99.522 46.7757C96.955 44.2093 100.415 43.2428 102.987 43.2428L114.407 43.0404L129.115 42.7855C130.45 42.7544 131.338 43.0093 131.889 43.534C132.419 44.0895 132.673 44.9778 132.637 46.3131L132.382 61.0213L132.185 72.4357C132.185 75.0068 131.219 78.4723 128.657 75.9115L119.898 67.152L95.973 91.0764L87.188 99.8623L87.1412 99.9036L87.0943 99.9504L87.0474 99.992L87.0005 100.034L86.9484 100.07L86.9015 100.107L86.8497 100.143L86.7975 100.18L86.7459 100.216L86.6935 100.242L86.6419 100.273L86.5842 100.304L86.5327 100.33L86.4758 100.356L86.4181 100.382L86.3668 100.408L86.3097 100.428L86.2523 100.449L86.1952 100.465L86.1383 100.486L86.0815 100.502L86.0244 100.517L85.962 100.528L85.9045 100.543L85.8427 100.553L85.785 100.559L85.7282 100.569L85.6658 100.574L85.6086 100.579L85.5515 100.585H85.4894H85.427H85.3699H85.313L85.2506 100.579L85.1938 100.574L85.1314 100.569L85.074 100.559L85.0121 100.553L84.9544 100.543L84.8976 100.528L84.8408 100.517L84.7784 100.502L84.7212 100.486L84.6644 100.465L84.612 100.449H84.6064L84.5493 100.428L84.4924 100.408L84.4403 100.382H84.4356L84.3832 100.356L84.326 100.33L84.2739 100.304L84.2223 100.273L84.1652 100.242L84.113 100.216L84.0609 100.18L84.0093 100.143L83.9622 100.107L83.91 100.07L83.864 100.034L83.8116 99.992L83.7647 99.9504L83.7178 99.9036L83.6709 99.8623L59.7304 75.9165L35.7855 99.8623C34.8193 100.828 33.2393 100.828 32.2731 99.8623L23.4829 91.0764C22.5213 90.1102 22.5213 88.5255 23.4829 87.5596Z" fill="#272323"/>
</g>
<path d="M53.3818 102.283H35.5046V144.345H53.3818V102.283Z" fill="#688794"/>
<path d="M83.9675 109.738H66.0902V144.345H83.9675V109.738Z" fill="#F190A0"/>
<path fill-rule="evenodd" clip-rule="evenodd" d="M96.6805 92.2513V144.345H114.558V89.2947H103.554H96.6805V92.2513Z" fill="#D1C476"/>
<path fill-rule="evenodd" clip-rule="evenodd" d="M19.1601 87.6378L53.6516 53.1509L53.6938 53.1044L53.7407 53.0619L53.7873 53.0206L53.8388 52.9793L53.8857 52.9377L53.9378 52.901L53.9841 52.865H53.9894L54.0418 52.8337L54.0931 52.8026L54.14 52.766L54.1971 52.7349L54.2493 52.7039L54.3064 52.6781L54.3585 52.6523L54.4157 52.6259L54.4728 52.6054L54.5296 52.5846L54.5818 52.5635L54.6389 52.543L54.6958 52.5275L54.7535 52.5117H54.7584L54.8153 52.4962L54.873 52.4806L54.9354 52.4704L54.987 52.4592L55.0494 52.449L55.1062 52.439L55.1686 52.4335H55.2254L55.2878 52.4279H55.3447L55.4071 52.4232L55.4642 52.4279H55.5266L55.584 52.4335H55.589H55.6458L55.7036 52.439L55.766 52.449L55.8228 52.4592L55.8799 52.4704L55.9368 52.4806L55.9992 52.4962L56.0563 52.5117L56.1137 52.5275L56.1708 52.543L56.2277 52.5635L56.2845 52.5846L56.3417 52.6054L56.3994 52.6259L56.4562 52.6523L56.5078 52.6781L56.5655 52.7039L56.617 52.7349L56.6695 52.766L56.7207 52.8026L56.7732 52.8337L56.8245 52.865L56.8769 52.901L56.9238 52.9377L56.9753 52.9793L57.0222 53.0206L57.0691 53.0619L57.1212 53.1044L57.1628 53.1509L65.9484 61.9359L81.1086 77.0912L103.272 54.9272L95.1987 46.8489C92.6314 44.2875 96.0917 43.321 98.6636 43.321L110.083 43.1182L124.791 42.8636C126.126 42.8276 127.014 43.0872 127.571 43.6122C128.095 44.1624 128.35 45.0509 128.313 46.3863L128.059 61.0998L127.861 72.5135C127.861 75.0852 126.895 78.5452 124.334 75.9846L115.574 67.2249L91.6497 91.1496L82.8647 99.9354L82.8178 99.982L82.7709 100.029L82.7238 100.066L82.6772 100.107L82.6251 100.149L82.5779 100.185L82.5266 100.221L82.4742 100.258L82.4226 100.289L82.3702 100.32L82.3189 100.352L82.2612 100.383L82.2096 100.408L82.1525 100.434L82.0948 100.455L82.0435 100.481L81.9864 100.502L81.9287 100.522L81.8715 100.543L81.8144 100.559L81.7573 100.575L81.7007 100.59L81.638 100.606L81.5803 100.616L81.5235 100.627L81.4664 100.637L81.4037 100.647L81.3413 100.653L81.2844 100.658H81.2273L81.1649 100.663H81.1081H81.0456L80.9885 100.658H80.9261L80.8693 100.653L80.8116 100.647L80.7492 100.637L80.6874 100.627L80.6296 100.616L80.5728 100.606L80.5157 100.59L80.4588 100.575L80.4011 100.559L80.3393 100.543L80.2872 100.522H80.2816L80.23 100.502L80.1676 100.481L80.1155 100.455H80.1105L80.0583 100.434L80.0068 100.408L79.9494 100.383L79.8978 100.352L79.841 100.32L79.7885 100.289L79.7416 100.258L79.6901 100.221L79.6379 100.185L79.5855 100.149L79.5395 100.107L79.4871 100.066L79.4405 100.029L79.3936 99.982L79.3523 99.9354L55.4065 75.9949L31.4616 99.9354C30.4954 100.907 28.9157 100.907 27.9495 99.9354L19.1601 91.1493C18.1989 90.1831 18.1989 88.6043 19.1601 87.6378ZM81.1098 74.2339L100.415 54.9275L93.7652 48.2774C89.5048 44.0173 94.7422 41.3003 98.6285 41.3003L124.756 40.8427C126.257 40.8117 127.832 41.0715 129.037 42.2253C130.107 43.3523 130.367 44.9212 130.341 46.4226L129.884 72.5135C129.884 76.4364 127.167 81.6785 122.902 77.4132L115.576 70.0825L83.905 101.712L83.1723 102.185L82.3306 102.517L81.3855 102.673L80.5122 102.642L79.5873 102.423L78.6943 101.987L78.0137 101.457L55.4083 78.8519L32.8971 101.364C31.1411 103.119 28.2782 103.119 26.5227 101.364L17.7316 92.5784C15.9755 90.822 15.9755 87.9592 17.7316 86.2084L52.5665 51.4101L53.346 50.9006L54.1822 50.5681L55.0713 50.4172L56.0062 50.4383L56.9311 50.6616L57.7256 51.041L58.4065 51.5396L58.594 51.7215L81.1098 74.2339Z" fill="#395A7C"/>
<path fill-rule="evenodd" clip-rule="evenodd" d="M19.1601 87.6375L53.6516 53.1507L53.6938 53.1041L53.7407 53.0617L53.7873 53.0203L53.8388 52.979L53.8857 52.9374L53.9379 52.9008L53.9842 52.8648H53.9894L54.0419 52.8334L54.0931 52.8024L54.14 52.7658L54.1971 52.7347L54.2493 52.7036L54.3064 52.6779L54.3586 52.6521L54.4157 52.6257L54.4728 52.6052L54.5297 52.5844L54.5818 52.5633L54.6389 52.5428L54.6958 52.5273L54.7535 52.5115H54.7585L54.8153 52.4959L54.873 52.4804L54.9354 52.4701L54.987 52.459L55.0494 52.4488L55.1062 52.4388L55.1686 52.4332H55.2255L55.2879 52.4277H55.3447L55.4071 52.423L55.4642 52.4277H55.5266L55.5841 52.4332H55.589H55.6459L55.7036 52.4388L55.766 52.4488L55.8228 52.459L55.88 52.4701L55.9368 52.4804L55.9992 52.4959L56.0563 52.5115L56.1137 52.5273L56.1709 52.5428L56.2277 52.5633L56.2845 52.5844L56.3417 52.6052L56.3994 52.6257L56.4562 52.6521L56.5078 52.6779L56.5655 52.7036L56.6171 52.7347L56.6695 52.7658L56.7208 52.8024L56.7732 52.8334L56.8245 52.8648L56.8769 52.9008L56.9238 52.9374L56.9754 52.979L57.0222 53.0203L57.0691 53.0617L57.1213 53.1041L57.1629 53.1507L65.9484 61.9357L81.1087 77.091L103.272 54.927L95.1987 46.8487C92.6314 44.2872 96.0917 43.3207 98.6637 43.3207L110.083 43.118L124.791 42.8634C126.126 42.8274 127.015 43.0869 127.571 43.6119C128.095 44.1621 128.35 45.0507 128.313 46.3861L128.059 61.0995L127.861 72.5133C127.861 75.085 126.895 78.545 124.334 75.9844L115.574 67.2246L91.6497 91.1494L82.8647 99.9352L82.8178 99.9818L82.771 100.029L82.7238 100.065L82.6772 100.107L82.6251 100.148L82.5779 100.185L82.5266 100.221L82.4742 100.258L82.4226 100.289L82.3702 100.32L82.3189 100.352L82.2612 100.383L82.2096 100.408L82.1525 100.434L82.0948 100.455L82.0435 100.481L81.9864 100.502L81.9287 100.522L81.8716 100.543L81.8144 100.559L81.7573 100.574L81.7008 100.59L81.6381 100.606L81.5803 100.616L81.5235 100.626L81.4664 100.637L81.4037 100.647L81.3413 100.653L81.2844 100.658H81.2273L81.1649 100.663H81.1081H81.0457L80.9886 100.658H80.9261L80.8693 100.653L80.8116 100.647L80.7492 100.637L80.6874 100.626L80.6297 100.616L80.5728 100.606L80.5157 100.59L80.4589 100.574L80.4011 100.559L80.3393 100.543L80.2872 100.522H80.2816L80.23 100.502L80.1677 100.481L80.1155 100.455H80.1105L80.0584 100.434L80.0068 100.408L79.9494 100.383L79.8978 100.352L79.841 100.32L79.7885 100.289L79.7417 100.258L79.6901 100.221L79.638 100.185L79.5855 100.148L79.5395 100.107L79.4871 100.065L79.4405 100.029L79.3936 99.9818L79.3523 99.9352L55.4065 75.9947L31.4616 99.9352C30.4954 100.907 28.9157 100.907 27.9495 99.9352L19.1601 91.1491C18.1989 90.1829 18.1989 88.604 19.1601 87.6375Z" fill="#499B5A"/>
<g opacity="0.25">
<path opacity="0.25" fill-rule="evenodd" clip-rule="evenodd" d="M66.0902 109.738V122.826C72.6671 120.483 78.6108 117.823 83.9675 114.996V109.738H66.0902V109.738ZM96.6805 92.2513V107.312C104.25 102.106 110.142 96.8073 114.558 92.2405V89.2947H103.554H97.7508H96.6805V90.3649V92.2513ZM53.3818 126.702V102.283H35.5046V130.224C41.8479 129.336 47.8025 128.141 53.3818 126.702Z" fill="#272323"/>
</g>
<path d="M95.5322 144.345V92.2513V89.2946V88.1465H96.6806H103.554H114.558H115.706V89.2946V144.345V145.498H114.558H96.6803H95.5319V144.345H95.5322ZM97.8334 92.2513V143.197H113.41V90.4428H103.554H97.8334V92.2513Z" fill="#395A7C"/>
<path d="M64.9421 144.345V109.738V108.59H66.0902H83.9675H85.1156V109.738V144.345V145.498H83.9675H66.0902H64.9421V144.345ZM67.2387 110.892V143.197H82.8193V110.892H67.2387Z" fill="#395A7C"/>
<path d="M54.5299 102.283V144.345V145.498H53.3818H35.5045H34.3567V144.345V102.283V101.135H35.5045H53.3818H54.5299V102.283ZM52.229 143.197V103.436H36.6527V143.197H52.229V143.197Z" fill="#395A7C"/>
</svg>
