<svg width="150" height="150" viewBox="0 0 150 150" fill="none" xmlns="http://www.w3.org/2000/svg">
<path fill-rule="evenodd" clip-rule="evenodd" d="M37.242 3.55664V24.4362H16.3739V122.948H100.003V3.51562H37.2845L37.242 3.55664Z" fill="#E4EFF8"/>
<path d="M100.002 124.102H16.3736C15.7396 124.102 15.2257 123.583 15.2257 122.948V24.4361C15.2257 23.8018 15.7396 23.2827 16.3736 23.2827H36.0939V3.55649C36.0939 3.25474 36.214 2.96323 36.4314 2.74585C36.645 2.52817 36.9772 2.36206 37.2842 2.36206H100.002C100.636 2.36206 101.156 2.88091 101.156 3.51548V122.948C101.155 123.583 100.636 124.102 100.002 124.102ZM17.5217 121.798H98.8504V4.6686H38.3899V24.4361C38.3899 25.0674 37.876 25.5892 37.2417 25.5892H17.5217V121.798Z" fill="#395A7C"/>
<path fill-rule="evenodd" clip-rule="evenodd" d="M16.3739 24.437H37.242V3.55737L16.3739 24.437Z" fill="#D4D8DD"/>
<path d="M37.2419 25.5883H16.3738C15.9109 25.5883 15.4905 25.307 15.3138 24.8699C15.1322 24.4454 15.2309 23.9471 15.5631 23.6248L36.4312 2.74493C36.7535 2.41241 37.2369 2.29756 37.6828 2.49678C38.1099 2.67315 38.3897 3.08741 38.3897 3.55528V24.4352C38.39 25.0665 37.8761 25.5883 37.2419 25.5883ZM19.1467 23.282H36.0937V6.3294L19.1467 23.282Z" fill="#395A7C"/>
<path fill-rule="evenodd" clip-rule="evenodd" d="M73.37 24.4368C83.0198 24.4368 90.8412 32.2482 90.8412 41.8875H73.37V24.4368V24.4368Z" fill="#BADCBE"/>
<path fill-rule="evenodd" clip-rule="evenodd" d="M71.2614 44.0054V61.4798C80.9113 61.4798 88.733 53.6452 88.733 44.0054H71.2614V44.0054Z" fill="#688794"/>
<path fill-rule="evenodd" clip-rule="evenodd" d="M71.2615 61.4798V44.0054L56.6142 53.5019C59.7212 58.2987 65.1223 61.4798 71.2615 61.4798Z" fill="#F190A0"/>
<path fill-rule="evenodd" clip-rule="evenodd" d="M56.6145 53.4998L71.2617 44.0032V26.532C61.6225 26.532 53.7996 34.3431 53.7996 44.0032C53.7993 47.5165 54.8283 50.7767 56.6145 53.4998Z" fill="#D1C476"/>
<path d="M60.3643 65.8186H54.9525V71.2391H60.3643V65.8186Z" fill="#D1C476"/>
<path d="M69.225 65.8186H63.8031V71.2391H69.225V65.8186Z" fill="#688794"/>
<path d="M78.7293 65.8186H73.3174V71.2391H78.7293V65.8186Z" fill="#DB4A50"/>
<path d="M87.5902 65.8186H82.1685V71.2391H87.5902V65.8186Z" fill="#499B5A"/>
<g opacity="0.25">
<path opacity="0.25" fill-rule="evenodd" clip-rule="evenodd" d="M69.2252 65.8213C69.2252 65.8213 68.7163 69.8713 63.8032 71.2418H69.2252V65.8213ZM60.3643 65.8213C60.3643 65.8213 59.8554 69.8713 54.9525 71.2418H60.3643V65.8213ZM87.5903 65.8213C87.5903 65.8213 87.0817 69.8713 82.1686 71.2418H87.5903V65.8213V65.8213ZM85.4091 45.9182C85.4091 46.9151 85.3054 47.8919 85.1173 48.8481C84.9937 48.8051 84.8683 48.8051 84.7239 48.8051C83.83 48.8051 83.0821 49.5337 83.0821 50.4466C83.0821 51.1523 83.5385 51.7559 84.1625 51.9832C81.9594 57.0943 77.0671 60.7916 71.2616 61.2495V61.4798C80.9114 61.4798 88.7332 53.6452 88.7332 44.0054H85.2843C85.3672 44.6294 85.4091 45.2739 85.4091 45.9182ZM78.7294 65.8213C78.7294 65.8213 78.2208 69.8713 73.3177 71.2418H78.7294V65.8213Z" fill="#272323"/>
</g>
<g opacity="0.25">
<path opacity="0.25" d="M90.8005 40.6582C90.8309 41.0546 90.8412 41.4481 90.8412 41.8421L90.8005 41.8855H89.5741L90.8005 40.6582ZM90.5508 38.7074C90.6238 39.0601 90.6648 39.4131 90.7067 39.7658L88.5871 41.8855H87.361L90.5508 38.7074ZM89.4912 35.1534C89.6051 35.4449 89.7299 35.7361 89.8339 36.0249L83.976 41.8858H82.7705L89.449 35.1941L89.4912 35.1534ZM88.733 33.5552C88.8789 33.8236 89.013 34.0949 89.1484 34.3632L81.649 41.8858H80.4226L88.733 33.5552ZM87.9021 32.1821C88.0682 32.4323 88.2138 32.6804 88.3685 32.9312L79.4362 41.8855H78.2207L87.9021 32.1821ZM86.9048 30.8321C87.0815 31.0624 87.2576 31.29 87.4342 31.5176L77.0995 41.8858H75.8731L86.9048 30.8321ZM85.6785 29.5023C85.8874 29.6892 86.074 29.899 86.2808 30.1266L74.5026 41.8858H73.37V41.8014L85.6785 29.5023ZM84.4424 28.3803C84.661 28.5695 84.8895 28.7561 85.0969 28.9428L73.3697 40.6787V39.4541L84.4424 28.3803ZM83.1859 27.4469C83.4144 27.5925 83.6637 27.7794 83.8928 27.9452L73.3697 38.4566V37.232L83.1859 27.4469ZM81.7205 26.5518C81.9815 26.6977 82.2405 26.8433 82.5006 26.9892L73.3697 36.1096V34.8847L81.7205 26.5518ZM80.1109 25.7852C80.4027 25.8874 80.6825 26.0125 80.9626 26.1581L73.3697 33.7419V32.5149L80.1109 25.7852ZM78.3865 25.1611C78.6985 25.2455 79.0108 25.3478 79.3008 25.4526L73.37 31.3946V30.1676L78.3865 25.1611ZM76.6105 24.7237C76.943 24.7873 77.2858 24.8693 77.6183 24.9537L73.3697 29.1906V27.9657L76.6105 24.7237ZM74.5231 24.4551C74.8963 24.4961 75.2711 24.5166 75.6443 24.5802L73.37 26.8433V25.6187L74.5231 24.4551ZM85.014 41.8858L90.0932 36.8154C90.1864 37.1476 90.2702 37.4596 90.3531 37.7921L86.2401 41.8858H85.014Z" fill="#272323"/>
</g>
<path fill-rule="evenodd" clip-rule="evenodd" d="M26.8034 93.72H80.7862V96.7115H26.8034V93.72ZM26.8034 85.9906H80.7862V88.9619H26.8034V85.9906ZM26.8034 77.5759H60.8116V80.5674H26.8034V77.5759ZM26.8034 52.958H49.3333V55.9495H26.8034V52.958ZM26.8034 38.4783H48.9589V41.4698H26.8034V38.4783ZM26.8034 45.6885H49.3333V48.6572H26.8034V45.6885ZM26.8034 101.365H80.7862V104.357H26.8034V101.365Z" fill="#395A7C"/>
<path fill-rule="evenodd" clip-rule="evenodd" d="M78.2202 53.1454L128.392 61.4783C131.768 62.0583 134.085 65.2778 133.513 68.6654L121.453 141.254C120.892 144.639 117.672 146.945 114.285 146.383L64.1149 138.053C60.7285 137.493 58.422 134.25 58.9833 130.865L71.0431 58.277C71.6041 54.8918 74.8347 52.5852 78.2202 53.1454Z" fill="#C4CCD5"/>
<g opacity="0.25">
<path opacity="0.25" fill-rule="evenodd" clip-rule="evenodd" d="M128.392 61.479C131.768 62.0591 134.085 65.2785 133.513 68.6661L121.453 141.254C120.892 144.64 117.672 146.946 114.285 146.383L64.115 138.053C62.2447 137.741 60.7081 136.621 59.7937 135.105L112.551 143.87C119.76 145.054 119.729 136.371 119.729 136.371C119.729 136.371 129.857 75.4164 130.854 69.4129C131.851 63.4094 128.392 61.479 128.392 61.479Z" fill="#272323"/>
</g>
<path fill-rule="evenodd" clip-rule="evenodd" d="M73.0068 111.959L77.9301 112.79C78.6054 112.894 79.073 113.539 78.9582 114.203L78.1373 119.148C78.0233 119.814 77.3893 120.269 76.7038 120.166L71.7807 119.335C71.1057 119.231 70.6378 118.586 70.7515 117.921L71.5721 112.999C71.6872 112.311 72.3306 111.856 73.0068 111.959ZM75.0318 99.7854L79.9548 100.596C80.6304 100.721 81.0878 101.343 80.9843 102.03L80.1637 106.953C80.0483 107.638 79.4052 108.095 78.7188 107.97L73.8057 107.16C73.1307 107.057 72.6743 106.413 72.7777 105.728L73.5986 100.803C73.7125 100.117 74.3568 99.66 75.0318 99.7854ZM77.0164 87.8396L81.9397 88.6705C82.6147 88.7751 83.0823 89.4196 82.9575 90.1048L82.1477 95.027C82.0329 95.692 81.3884 96.1494 80.7134 96.0471L75.79 95.2365C75.115 95.1111 74.6471 94.4666 74.762 93.8021L75.5829 88.8776C75.6965 88.192 76.3408 87.7371 77.0164 87.8396ZM86.157 114.14L91.0804 114.971C91.7457 115.076 92.2133 115.72 92.0982 116.405L91.2887 121.33C91.1633 121.995 90.519 122.45 89.8543 122.348L84.9309 121.537C84.2457 121.412 83.7884 120.768 83.9032 120.103L84.7241 115.181C84.8275 114.495 85.4721 114.037 86.157 114.14ZM88.1718 101.966L93.0951 102.777C93.7704 102.903 94.238 103.547 94.1246 104.211L93.3037 109.133C93.1886 109.819 92.5455 110.277 91.8705 110.174L86.9457 109.343C86.2807 109.239 85.8142 108.594 85.9279 107.909L86.7386 102.984C86.8628 102.319 87.4968 101.841 88.1718 101.966ZM90.1666 90.0202L95.0797 90.8513C95.7544 90.9562 96.2223 91.6007 96.1089 92.2857L95.288 97.2108C95.1729 97.8755 94.5301 98.3305 93.8536 98.2283L88.9405 97.4179C88.2553 97.2922 87.7991 96.6483 87.9025 95.9833L88.7334 91.0611C88.8368 90.3732 89.4811 89.9179 90.1666 90.0202ZM99.0477 116.28L103.971 117.111C104.646 117.215 105.114 117.86 105 118.545L104.179 123.47C104.064 124.135 103.421 124.61 102.745 124.488L97.8216 123.677C97.1466 123.552 96.6899 122.907 96.7936 122.242L97.6145 117.32C97.7285 116.632 98.3724 116.178 99.0477 116.28ZM101.073 104.107L105.998 104.917C106.673 105.043 107.129 105.687 107.026 106.352L106.205 111.274C106.091 111.959 105.446 112.417 104.771 112.312L99.8475 111.481C99.1716 111.379 98.7052 110.734 98.8186 110.049L99.6395 105.124C99.7532 104.459 100.398 104.002 101.073 104.107ZM103.057 92.1808L107.98 92.9915C108.657 93.0963 109.113 93.7409 109 94.4258L108.189 99.348C108.075 100.013 107.431 100.491 106.756 100.368L101.831 99.5578C101.156 99.4324 100.689 98.8084 100.803 98.1234L101.624 93.1986C101.738 92.5133 102.382 92.0584 103.057 92.1808ZM96.991 128.704L101.914 129.515C102.591 129.619 103.047 130.261 102.933 130.949L102.112 135.871C102.009 136.536 101.365 137.014 100.679 136.889L95.7541 136.078C95.0794 135.955 94.6233 135.332 94.7366 134.646L95.5578 129.722C95.661 129.036 96.3055 128.578 96.991 128.704ZM84.0898 126.543L89.0132 127.374C89.6882 127.479 90.1458 128.124 90.0421 128.809L89.2215 133.731C89.1063 134.396 88.463 134.853 87.7871 134.749L82.8637 133.941C82.1882 133.815 81.732 133.171 81.8354 132.506L82.6666 127.581C82.7703 126.896 83.4148 126.438 84.0898 126.543ZM70.9498 124.362L75.8732 125.193C76.5485 125.298 77.0164 125.94 76.891 126.627L76.0818 131.549C75.9664 132.214 75.3122 132.672 74.6474 132.567L69.7241 131.756C69.0388 131.634 68.5812 130.99 68.6963 130.324L69.5169 125.4C69.62 124.715 70.2646 124.257 70.9498 124.362Z" fill="#272323"/>
<path fill-rule="evenodd" clip-rule="evenodd" d="M113.974 106.187L118.898 106.995C119.573 107.1 120.029 107.744 119.916 108.429L119.105 113.354C118.991 114.039 118.347 114.497 117.672 114.372L112.749 113.561C112.073 113.456 111.606 112.812 111.719 112.126L112.54 107.205C112.655 106.519 113.299 106.062 113.974 106.187ZM115.958 94.241L120.882 95.0722C121.557 95.1744 122.014 95.8187 121.9 96.5042L121.079 101.429C120.976 102.094 120.331 102.551 119.656 102.446L114.733 101.636C114.058 101.51 113.59 100.869 113.704 100.204L114.525 95.2591C114.64 94.5941 115.272 94.1362 115.958 94.241ZM115.844 132.986L115.833 133.027L115.625 134.252V134.275L115.013 137.952C114.909 138.617 114.265 139.072 113.58 138.969L108.666 138.158C107.98 138.033 107.523 137.389 107.637 136.724L108.241 133.047L108.251 133.027L108.458 131.782V131.758L110.515 119.378C110.629 118.713 111.273 118.256 111.948 118.36L116.871 119.171C117.548 119.294 118.004 119.938 117.901 120.603L115.844 132.986Z" fill="#272323"/>
<path fill-rule="evenodd" clip-rule="evenodd" d="M79.2394 58.5264L125.753 66.2537C127.105 66.4837 128.029 67.7698 127.8 69.1224L124.829 87.0488C124.6 88.4015 123.312 89.3345 121.963 89.1069L75.4372 81.3776C74.0872 81.1499 73.1729 79.8612 73.4005 78.4907L76.3715 60.5821C76.6006 59.2327 77.8879 58.2967 79.2394 58.5264Z" fill="#ABADB6"/>
<path fill-rule="evenodd" clip-rule="evenodd" d="M78.0961 60.1057L126.314 68.1266L123.094 87.508L74.8757 79.5102L78.0961 60.1057Z" fill="#F8F7F7"/>
<path fill-rule="evenodd" clip-rule="evenodd" d="M76.455 87.2596L81.3784 88.0907C82.0534 88.193 82.521 88.8375 82.3974 89.5228L81.5864 94.4473C81.4719 95.1123 80.8288 95.5902 80.1535 95.4654L75.2286 94.6544C74.5434 94.5293 74.0872 93.8877 74.2009 93.2224L75.0215 88.2979C75.1252 87.6126 75.7695 87.1547 76.455 87.2596Z" fill="#F8F7F7"/>
<path fill-rule="evenodd" clip-rule="evenodd" d="M74.4705 99.2031L79.3938 100.011C80.0703 100.137 80.5262 100.781 80.4228 101.446L79.6022 106.37C79.4882 107.056 78.8437 107.513 78.1689 107.408L73.2442 106.577C72.5692 106.473 72.1127 105.828 72.2164 105.143L73.037 100.221C73.151 99.5562 73.7955 99.0777 74.4705 99.2031Z" fill="#F8F7F7"/>
<path fill-rule="evenodd" clip-rule="evenodd" d="M72.4453 111.377L77.3687 112.208C78.054 112.31 78.5116 112.955 78.3967 113.64L77.5773 118.565C77.4622 119.23 76.8294 119.687 76.1429 119.583L71.2195 118.772C70.5346 118.649 70.0767 118.005 70.202 117.34L71.0127 112.415C71.1261 111.73 71.7601 111.272 72.4453 111.377Z" fill="#F8F7F7"/>
<path fill-rule="evenodd" clip-rule="evenodd" d="M70.3884 123.778L75.3119 124.609C75.9872 124.714 76.4547 125.358 76.3308 126.043L75.5202 130.968C75.3948 131.633 74.7619 132.111 74.0869 131.986L69.162 131.175C68.4768 131.05 68.0203 130.405 68.124 129.741L68.9549 124.819C69.0589 124.133 69.7032 123.675 70.3884 123.778Z" fill="#F8F7F7"/>
<path fill-rule="evenodd" clip-rule="evenodd" d="M89.5842 89.4385L94.5179 90.2694C95.1943 90.3717 95.6505 91.0162 95.5368 91.7011L94.7162 96.626C94.6125 97.3115 93.9682 97.7688 93.283 97.644L88.3581 96.8331C87.6828 96.7103 87.2164 96.0664 87.3404 95.4011L88.151 90.4765C88.2752 89.7913 88.9095 89.3337 89.5842 89.4385Z" fill="#628892"/>
<path fill-rule="evenodd" clip-rule="evenodd" d="M87.6103 101.387L92.5355 102.198C93.2102 102.32 93.6664 102.965 93.5533 103.63L92.7424 108.555C92.6287 109.24 91.9841 109.697 91.3091 109.593L86.3857 108.762C85.6992 108.657 85.2428 108.015 85.3562 107.327L86.1774 102.405C86.2808 101.74 86.9253 101.282 87.6103 101.387Z" fill="#F8F7F7"/>
<path fill-rule="evenodd" clip-rule="evenodd" d="M85.5752 113.561L90.5084 114.392C91.184 114.497 91.6413 115.139 91.5379 115.826L90.7068 120.748C90.6019 121.413 89.9588 121.891 89.2724 121.766L84.3492 120.955C83.6841 120.833 83.2163 120.189 83.3314 119.524L84.1418 114.599C84.266 113.914 84.9105 113.456 85.5752 113.561Z" fill="#F8F7F7"/>
<path fill-rule="evenodd" clip-rule="evenodd" d="M83.5184 125.963L88.4418 126.793C89.1283 126.896 89.5844 127.54 89.471 128.226L88.6498 133.15C88.5464 133.836 87.9022 134.293 87.2166 134.168L82.292 133.357C81.6167 133.232 81.1506 132.588 81.2742 131.923L82.0849 127.001C82.1986 126.316 82.8431 125.858 83.5184 125.963Z" fill="#F8F7F7"/>
<path fill-rule="evenodd" clip-rule="evenodd" d="M102.641 91.6223L107.576 92.4329C108.251 92.5583 108.707 93.1999 108.594 93.8646L107.773 98.7894C107.659 99.4746 107.025 99.9323 106.34 99.8277L101.415 98.9965C100.74 98.8943 100.284 98.25 100.397 97.5645L101.208 92.64C101.322 91.975 101.966 91.4972 102.641 91.6223Z" fill="#628892"/>
<path fill-rule="evenodd" clip-rule="evenodd" d="M100.657 103.548L105.582 104.379C106.267 104.481 106.723 105.126 106.61 105.811L105.799 110.736C105.675 111.401 105.041 111.878 104.356 111.753L99.4318 110.943C98.7559 110.818 98.2998 110.176 98.4128 109.511L99.2338 104.586C99.3375 103.901 99.982 103.443 100.657 103.548Z" fill="#F8F7F7"/>
<path fill-rule="evenodd" clip-rule="evenodd" d="M98.632 115.741L103.565 116.551C104.241 116.677 104.698 117.321 104.585 117.986L103.764 122.907C103.659 123.593 103.016 124.05 102.341 123.946L97.4062 123.115C96.7306 123.012 96.2745 122.368 96.3885 121.683L97.2091 116.758C97.3227 116.073 97.9567 115.615 98.632 115.741Z" fill="#F8F7F7"/>
<path fill-rule="evenodd" clip-rule="evenodd" d="M96.5751 128.144L101.499 128.955C102.185 129.078 102.641 129.722 102.528 130.387L101.707 135.312C101.593 135.997 100.959 136.454 100.273 136.35L95.3487 135.519C94.6737 135.414 94.2176 134.772 94.3207 134.084L95.1416 129.162C95.2556 128.497 95.8998 128.019 96.5751 128.144Z" fill="#F8F7F7"/>
<path fill-rule="evenodd" clip-rule="evenodd" d="M115.376 93.7419L120.311 94.5525C120.986 94.675 121.442 95.2993 121.328 95.9843L120.508 100.909C120.404 101.595 119.76 102.052 119.074 101.927L114.151 101.116C113.476 101.012 113.018 100.37 113.132 99.6819L113.943 94.7597C114.058 94.0741 114.701 93.6165 115.376 93.7419Z" fill="#628892"/>
<path fill-rule="evenodd" clip-rule="evenodd" d="M113.404 105.664L118.327 106.495C119.002 106.599 119.459 107.244 119.345 107.929L118.534 112.854C118.42 113.519 117.776 113.974 117.09 113.871L112.167 113.061C111.492 112.936 111.034 112.291 111.149 111.627L111.969 106.684C112.074 106.019 112.717 105.561 113.404 105.664Z" fill="#628892"/>
<path fill-rule="evenodd" clip-rule="evenodd" d="M115.262 132.487V132.508L115.055 133.732V133.776L114.441 137.432C114.328 138.117 113.683 138.572 113.008 138.45L108.085 137.639C107.41 137.534 106.952 136.89 107.055 136.205L107.669 132.549L107.68 132.508L107.876 131.283L107.886 131.24L109.943 118.88C110.057 118.194 110.691 117.737 111.377 117.862L116.29 118.673C116.977 118.775 117.433 119.419 117.319 120.104L115.262 132.487Z" fill="#EB7113"/>
<path d="M78.5844 89.6665C78.469 89.6463 78.3659 89.6665 78.2725 89.7306C78.1793 89.7919 78.0861 89.8964 78.0129 90.0834C77.9095 90.3107 77.8046 90.7044 77.7117 91.2669C77.6186 91.8271 77.5773 92.2234 77.5975 92.4508C77.6183 92.6781 77.6704 92.824 77.7434 92.9087C77.8149 92.9901 77.9095 93.054 78.0129 93.0745C78.1371 93.0745 78.2303 93.0745 78.3249 93.0106C78.4283 92.9491 78.5115 92.8237 78.5947 92.6576C78.6984 92.4303 78.7916 92.0339 78.8844 91.4737C78.9893 90.8934 79.0204 90.497 78.9999 90.2902C78.9779 90.0626 78.9269 89.9167 78.8543 89.8323C78.7816 89.7508 78.6984 89.687 78.5844 89.6665ZM78.7084 88.8995C79.1765 88.9812 79.5087 89.2092 79.7159 89.5847C79.9652 90.0192 80.0071 90.7044 79.8615 91.6199C79.7159 92.5325 79.4457 93.177 79.0728 93.5095C78.7503 93.8007 78.3559 93.9059 77.8878 93.8212C77.4314 93.7597 77.0781 93.5095 76.8495 93.095C76.6207 92.6983 76.5797 92.0134 76.7459 91.1002C76.8903 90.1853 77.1613 89.5639 77.5345 89.2086C77.8471 88.92 78.2417 88.8356 78.7084 88.8995Z" fill="#4A4646"/>
<path d="M103.202 106.994C103.255 106.685 103.233 106.455 103.119 106.268C103.016 106.081 102.87 105.977 102.684 105.936C102.518 105.915 102.361 105.956 102.226 106.061C102.091 106.186 101.997 106.393 101.946 106.705C101.904 107.017 101.926 107.245 102.019 107.411C102.122 107.577 102.258 107.682 102.444 107.702C102.621 107.744 102.777 107.702 102.923 107.577C103.067 107.452 103.16 107.266 103.202 106.994ZM100.793 108.657L101.706 108.72C101.697 108.907 101.737 109.053 101.81 109.135C101.883 109.239 101.997 109.301 102.143 109.344C102.341 109.365 102.507 109.301 102.674 109.155C102.828 109.012 102.974 108.657 103.109 108.097C102.828 108.324 102.517 108.429 102.175 108.368C101.79 108.304 101.488 108.097 101.261 107.764C101.042 107.432 100.969 107.018 101.042 106.56C101.125 106.062 101.332 105.688 101.676 105.437C102.009 105.189 102.413 105.105 102.86 105.189C103.338 105.271 103.712 105.522 103.961 105.936C104.211 106.373 104.262 107.018 104.117 107.889C103.981 108.762 103.712 109.385 103.317 109.718C102.923 110.05 102.476 110.175 101.946 110.091C101.571 110.03 101.292 109.884 101.095 109.633C100.896 109.406 100.793 109.073 100.793 108.657Z" fill="#4A4646"/>
<path d="M89.0651 104.233C89.0335 104.419 89.0651 104.565 89.1483 104.691C89.2315 104.813 89.3554 104.877 89.5318 104.918C89.7096 104.938 89.8541 104.918 89.9797 104.834C90.1034 104.731 90.1763 104.606 90.2083 104.419C90.2285 104.253 90.2083 104.108 90.1251 103.982C90.0307 103.86 89.9065 103.775 89.7298 103.755C89.564 103.735 89.4079 103.755 89.2942 103.837C89.1688 103.921 89.0859 104.067 89.0651 104.233ZM88.6295 106.289C88.5867 106.539 88.6178 106.746 88.7329 106.912C88.8366 107.079 88.9822 107.183 89.1791 107.204C89.3657 107.245 89.5432 107.204 89.6877 107.079C89.8336 106.974 89.9267 106.767 89.9689 106.519C89.9994 106.289 89.9794 106.102 89.8757 105.936C89.7709 105.77 89.6147 105.688 89.4181 105.644C89.1993 105.603 89.0226 105.665 88.8785 105.81C88.7534 105.936 88.66 106.102 88.6295 106.289ZM88.7127 105.125C88.4941 105 88.338 104.813 88.265 104.626C88.1924 104.44 88.1719 104.233 88.2026 104.026C88.2551 103.67 88.4314 103.381 88.7229 103.195C89.013 103.005 89.3877 102.944 89.8438 103.029C90.312 103.09 90.6442 103.277 90.8513 103.547C91.0596 103.816 91.1428 104.149 91.0798 104.501C91.0388 104.731 90.9559 104.918 90.8103 105.064C90.6644 105.23 90.4778 105.332 90.249 105.396C90.4983 105.542 90.6849 105.729 90.7895 105.956C90.8932 106.186 90.9137 106.434 90.8727 106.705C90.8 107.161 90.6014 107.493 90.2695 107.723C89.9367 107.95 89.5432 108.035 89.0648 107.95C88.6295 107.889 88.2967 107.703 88.0359 107.432C87.7357 107.099 87.6317 106.685 87.7149 106.227C87.7559 105.956 87.8593 105.729 88.026 105.542C88.1921 105.332 88.4209 105.209 88.7127 105.125Z" fill="#4A4646"/>
<path d="M125.567 67.3975L79.1344 59.6708H79.0412C78.6782 59.6069 78.3255 59.691 78.0442 59.8981C77.7847 60.0851 77.5775 60.3766 77.5148 60.7293L77.5046 60.7703L74.5233 78.6789C74.4606 79.0521 74.564 79.4051 74.7624 79.6963C74.9593 79.9676 75.2713 80.1748 75.6343 80.236L122.087 87.9654H122.15C122.503 88.0272 122.855 87.9452 123.127 87.7582L123.157 87.738C123.427 87.5286 123.635 87.2165 123.698 86.8641L126.678 68.9347C126.731 68.582 126.637 68.2088 126.44 67.9378C126.241 67.6483 125.93 67.4386 125.567 67.3975ZM79.5091 57.4053L125.93 65.1347C126.927 65.3008 127.769 65.8404 128.309 66.6074C128.838 67.3565 129.099 68.3333 128.933 69.31L125.951 87.2391C125.795 88.2129 125.234 89.0672 124.476 89.6069L124.424 89.6479C123.675 90.1462 122.731 90.397 121.765 90.2306H121.744L75.2607 82.5012H75.2505C74.274 82.3354 73.4429 81.7958 72.9017 81.0261H72.8915C72.3521 80.2794 72.1028 79.3026 72.2587 78.3258L75.2285 60.4812L75.2388 60.3971L75.2502 60.3153C75.4371 59.3591 75.9764 58.5484 76.7244 58.0293C77.4513 57.5105 78.3861 57.2395 79.3427 57.3851L79.4259 57.4056L79.5091 57.4053ZM79.4259 57.4053H79.4358Z" fill="#395A7C"/>
<path d="M74.9591 101.468L75.1047 100.596L78.3457 101.135L78.2305 101.821C77.9197 102.03 77.5874 102.363 77.2233 102.818C76.8705 103.255 76.5687 103.753 76.3308 104.293C76.1017 104.812 75.9356 105.29 75.8729 105.748L74.9588 105.582C75.0839 104.896 75.3438 104.232 75.727 103.567C76.1225 102.881 76.5799 102.319 77.1195 101.821L74.9591 101.468Z" fill="#4A4646"/>
<path d="M99.7953 120.5C99.7428 120.789 99.7751 121.04 99.8884 121.226C99.9921 121.413 100.138 121.517 100.314 121.538C100.48 121.579 100.636 121.538 100.772 121.413C100.906 121.31 101 121.101 101.052 120.789C101.104 120.479 101.083 120.229 100.979 120.063C100.886 119.896 100.74 119.814 100.564 119.771C100.377 119.751 100.221 119.791 100.075 119.917C99.9309 120.022 99.836 120.229 99.7953 120.5ZM102.205 118.838L101.301 118.774C101.311 118.608 101.281 118.462 101.197 118.359C101.125 118.255 101.01 118.193 100.865 118.173C100.667 118.129 100.49 118.193 100.324 118.339C100.168 118.505 100.024 118.838 99.8984 119.397C100.168 119.149 100.48 119.065 100.812 119.126C101.197 119.19 101.498 119.397 101.726 119.73C101.955 120.063 102.028 120.456 101.945 120.934C101.872 121.412 101.654 121.786 101.321 122.036C100.989 122.284 100.583 122.369 100.137 122.308C99.659 122.223 99.2861 121.975 99.0368 121.538C98.7872 121.101 98.7348 120.456 98.8807 119.604C99.0263 118.732 99.2961 118.109 99.6807 117.776C100.074 117.444 100.532 117.321 101.051 117.403C101.404 117.465 101.696 117.61 101.903 117.861C102.102 118.109 102.205 118.441 102.205 118.838Z" fill="#4A4646"/>
<path d="M85.6996 118.525L86.6555 118.586C86.6456 118.793 86.6966 118.983 86.8015 119.126C86.9154 119.272 87.0511 119.356 87.2271 119.397C87.4243 119.418 87.6107 119.377 87.7566 119.231C87.9227 119.106 88.0366 118.878 88.0888 118.546C88.1313 118.254 88.1096 118.006 88.0059 117.84C87.8922 117.653 87.7258 117.549 87.5075 117.528C87.2377 117.465 86.9778 117.549 86.7291 117.756L85.9911 117.528L86.8847 115.056L89.3562 115.47L89.2118 116.344L87.4554 116.053L87.165 116.864C87.3936 116.8 87.611 116.779 87.8404 116.8C88.2558 116.884 88.5781 117.091 88.8171 117.444C89.0559 117.797 89.1289 118.214 89.046 118.692C88.983 119.086 88.8069 119.439 88.5256 119.71C88.1316 120.083 87.6537 120.228 87.0924 120.147C86.6359 120.063 86.292 119.876 86.0541 119.604C85.8039 119.293 85.689 118.939 85.6996 118.525Z" fill="#4A4646"/>
<path d="M74.4193 116.18L74.6994 114.518L73.297 115.993L74.4193 116.18ZM74.1278 117.988L74.2939 117.011L72.2789 116.679L72.4248 115.848L75.0621 113.083L75.8522 113.209L75.3334 116.326L75.946 116.428L75.8101 117.259L75.1978 117.157L75.0416 118.131L74.1278 117.988Z" fill="#4A4646"/>
<path d="M96.6479 133.066L97.5623 133.109C97.5521 133.357 97.5928 133.544 97.6977 133.669C97.8011 133.815 97.947 133.896 98.1234 133.94C98.3103 133.96 98.4764 133.917 98.6322 133.794C98.7881 133.669 98.8816 133.483 98.9223 133.252C98.9645 133.004 98.9337 132.818 98.8291 132.651C98.7254 132.506 98.5901 132.401 98.4134 132.38C98.2895 132.36 98.1439 132.36 97.9777 132.38L98.2066 131.654C98.4556 131.695 98.6525 131.674 98.7987 131.569C98.9545 131.488 99.0377 131.342 99.0682 131.156C99.1001 130.989 99.0682 130.844 98.9952 130.738C98.9123 130.636 98.7987 130.552 98.6325 130.531C98.4767 130.511 98.3308 130.531 98.2069 130.636C98.0712 130.718 97.978 130.863 97.9153 131.071L97.0944 130.782C97.2096 130.511 97.3335 130.283 97.4791 130.137C97.625 129.972 97.8119 129.866 98.051 129.805C98.2795 129.741 98.5291 129.721 98.7887 129.762C99.2451 129.846 99.5774 130.053 99.8062 130.386C99.9931 130.657 100.056 130.948 100.015 131.237C99.9418 131.674 99.6506 131.966 99.1517 132.153C99.4119 132.255 99.6096 132.421 99.7438 132.651C99.8692 132.878 99.9099 133.15 99.8692 133.441C99.7962 133.855 99.5879 134.208 99.2249 134.438C98.8616 134.686 98.4562 134.771 97.9986 134.707C97.5629 134.625 97.2304 134.438 96.9808 134.147C96.7411 133.856 96.6277 133.483 96.6479 133.066Z" fill="#4A4646"/>
<path d="M86.8423 131.924L86.6964 132.778L83.4349 132.236C83.5184 131.924 83.6737 131.634 83.9031 131.364C84.1205 131.092 84.5359 130.76 85.1395 130.366C85.6264 130.055 85.9282 129.827 86.0418 129.701C86.198 129.535 86.3032 129.348 86.3333 129.162C86.3641 128.955 86.3439 128.789 86.2402 128.663C86.1573 128.518 86.0114 128.433 85.8042 128.413C85.6164 128.372 85.4503 128.413 85.3264 128.518C85.1805 128.599 85.0873 128.789 85.0243 129.057L84.1105 128.809C84.2459 128.31 84.485 127.978 84.8072 127.791C85.1398 127.626 85.5233 127.561 85.9709 127.646C86.4479 127.727 86.8018 127.914 87.0292 128.226C87.258 128.517 87.3412 128.87 87.2788 129.244C87.2378 129.474 87.1751 129.681 87.0514 129.868C86.9466 130.054 86.7801 130.241 86.5833 130.427C86.4479 130.553 86.1986 130.719 85.866 130.949C85.5335 131.156 85.3059 131.322 85.223 131.384C85.1181 131.468 85.0457 131.529 84.9839 131.614L86.8423 131.924Z" fill="#4A4646"/>
<path d="M72.5593 130.385L71.635 130.24L72.2165 126.75C71.8213 127.021 71.3956 127.187 70.9073 127.248L71.0532 126.417C71.3025 126.376 71.594 126.271 71.9045 126.085C72.2268 125.918 72.4659 125.691 72.6115 125.419L73.3594 125.545L72.5593 130.385Z" fill="#4A4646"/>
<path d="M90.4152 95.9021L90.7172 94.0737L88.8571 93.7617L89.0754 92.5139L90.924 92.8259L91.2261 90.9773L92.4621 91.1844L92.1607 93.0125L94.0093 93.3249L93.8022 94.5928L91.9532 94.2811L91.6415 96.1092L90.4152 95.9021Z" fill="#F8F7F7"/>
<path d="M112.852 110.712L114.358 109.631L113.268 108.115L114.317 107.368L115.408 108.884L116.914 107.803L117.641 108.82L116.135 109.902L117.226 111.439L116.176 112.167L115.086 110.649L113.58 111.73L112.852 110.712Z" fill="#F8F7F7"/>
<path d="M102.372 95.9624L102.569 94.7991L106.61 95.4843L106.423 96.6269L102.372 95.9624Z" fill="#F8F7F7"/>
<path d="M114.764 97.9775L114.94 96.9395L119.687 97.7294L119.511 98.7677L114.764 97.9775ZM116.8 96.8783L116.977 95.8374L118.118 96.024L117.953 97.0649L116.8 96.8783ZM116.332 99.6396L116.509 98.6016L117.662 98.8084L117.486 99.8467L116.332 99.6396Z" fill="#F8F7F7"/>
<path d="M109.528 129.494L109.704 128.456L114.451 129.243L114.275 130.284L109.528 129.494ZM109.933 127.062L110.11 126.024L114.857 126.814L114.68 127.852L109.933 127.062Z" fill="#F8F7F7"/>
<g opacity="0.1">
<path opacity="0.1" fill-rule="evenodd" clip-rule="evenodd" d="M126.314 68.1257C126.314 68.1257 118.773 85.6176 74.8757 79.5091L123.094 87.5072L126.314 68.1257Z" fill="#272323"/>
</g>
<path d="M128.205 62.6187L78.0338 54.2885C76.6627 54.0608 75.2913 54.4136 74.2313 55.1627C73.1728 55.9297 72.4032 57.0931 72.1756 58.4639L60.1044 131.052C59.887 132.445 60.2503 133.795 60.9979 134.854C61.7561 135.912 62.9195 136.682 64.3014 136.91L114.462 145.263C115.843 145.47 117.204 145.118 118.264 144.368C119.323 143.622 120.092 142.438 120.321 141.065L132.39 68.4796C132.609 67.1064 132.256 65.7359 131.497 64.6774C130.739 63.6163 129.576 62.8487 128.205 62.6187ZM78.4085 52.0256L128.579 60.3561C130.573 60.6884 132.267 61.811 133.368 63.3476C134.458 64.8846 134.977 66.8378 134.645 68.8323L122.585 141.441C122.253 143.435 121.131 145.138 119.593 146.24C118.057 147.319 116.093 147.838 114.099 147.506L63.9273 139.175C61.9228 138.843 60.2298 137.72 59.1294 136.183C58.0375 134.647 57.5289 132.693 57.8509 130.699L69.9106 58.0906C70.2432 56.0961 71.3655 54.3933 72.9021 53.2912C74.4399 52.2122 76.4025 51.6933 78.4085 52.0256Z" fill="#395A7C"/>
</svg>
