<svg width="150" height="150" viewBox="0 0 150 150" fill="none" xmlns="http://www.w3.org/2000/svg">
<g clip-path="url(#clip0_43_33)">
<path d="M126.563 150H56.25C55.0068 150 53.8145 149.506 52.9355 148.627C52.0564 147.748 51.5625 146.555 51.5625 145.312V131.25H42.1875C38.4579 131.25 34.8811 129.768 32.2438 127.131C29.6066 124.494 28.125 120.917 28.125 117.187V101.334L11.9672 93.281C11.3721 92.9839 10.847 92.5635 10.4268 92.0478C10.0067 91.5321 9.7011 90.9329 9.53039 90.29C9.35969 89.647 9.32777 88.9752 9.43676 88.319C9.54576 87.6628 9.79316 87.0373 10.1625 86.4841L28.125 59.4888C28.4173 46.7157 32.7184 34.3579 40.4199 24.1636C48.1214 13.9694 58.8333 6.45476 71.0403 2.68295C83.2472 -1.08886 96.3311 -0.926921 108.441 3.14586C120.551 7.21865 131.074 14.9961 138.52 25.3778C138.881 25.8768 139.14 26.4418 139.282 27.0408C139.425 27.6398 139.448 28.261 139.35 28.8688C139.252 29.4767 139.036 30.0594 138.713 30.5835C138.39 31.1077 137.967 31.5632 137.468 31.9239C136.969 32.2847 136.404 32.5436 135.805 32.6859C135.206 32.8283 134.585 32.8512 133.977 32.7535C133.369 32.6558 132.786 32.4393 132.262 32.1164C131.738 31.7935 131.283 31.3705 130.922 30.8716C124.554 22.0176 115.542 15.4109 105.182 12.0013C94.8223 8.59179 83.6482 8.55496 73.2662 11.8962C62.8842 15.2374 53.8291 21.7845 47.4025 30.5963C40.9759 39.4082 37.509 50.0308 37.5 60.9372C37.4986 61.8629 37.2247 62.7677 36.7125 63.5388L20.9063 87.2435L34.9078 94.2419C35.6871 94.6313 36.3424 95.2301 36.8002 95.9711C37.2581 96.7122 37.5004 97.5661 37.5 98.4372V117.187C37.5 118.43 37.9939 119.623 38.873 120.502C39.752 121.381 40.9443 121.875 42.1875 121.875H56.25C57.4932 121.875 58.6855 122.369 59.5646 123.248C60.4437 124.127 60.9375 125.319 60.9375 126.562V140.625H121.875V131.09C121.681 115.766 125.642 100.676 133.336 87.4216C139.049 77.8662 141.515 66.7185 140.367 55.645C140.12 53.0823 139.67 50.5431 139.022 48.0513C138.741 46.8583 138.939 45.6029 139.573 44.5541C140.207 43.5052 141.226 42.7463 142.413 42.4398C143.599 42.1334 144.859 42.3038 145.921 42.9146C146.984 43.5254 147.765 44.5279 148.097 45.7075C148.864 48.6726 149.4 51.6925 149.7 54.7403C151.052 67.8111 148.133 80.9681 141.38 92.2403C134.557 104.038 131.057 117.463 131.25 131.09V145.312C131.25 146.555 130.756 147.748 129.877 148.627C128.998 149.506 127.806 150 126.563 150Z" fill="#04009A"/>
<path d="M65.625 131.25H56.25C55.0068 131.25 53.8145 130.756 52.9354 129.877C52.0564 128.998 51.5625 127.806 51.5625 126.562C51.5625 125.319 52.0564 124.127 52.9354 123.248C53.8145 122.369 55.0068 121.875 56.25 121.875H65.625C66.8682 121.875 68.0605 122.369 68.9396 123.248C69.8186 124.127 70.3125 125.319 70.3125 126.562C70.3125 127.806 69.8186 128.998 68.9396 129.877C68.0605 130.756 66.8682 131.25 65.625 131.25Z" fill="#04009A"/>
<path d="M94.0876 89.0625H84.0376C81.7337 89.0634 79.5162 88.1857 77.837 86.6084C76.1578 85.0311 75.1432 82.8728 75.0001 80.5734C72.9414 81.6003 70.5685 81.8029 68.3655 81.14C66.1625 80.4771 64.2955 78.9987 63.1454 77.0063L58.1251 68.3063C56.9803 66.3109 56.6373 63.9549 57.1657 61.716C57.6941 59.4771 59.0543 57.523 60.9704 56.25C59.0543 54.977 57.6941 53.0229 57.1657 50.784C56.6373 48.5451 56.9803 46.1891 58.1251 44.1938L63.1501 35.4938C64.3001 33.5025 66.1663 32.0249 68.3682 31.3621C70.5701 30.6993 72.9419 30.9011 75.0001 31.9266C75.1432 29.6272 76.1578 27.4689 77.837 25.8916C79.5162 24.3143 81.7337 23.4366 84.0376 23.4375H94.0876C96.3921 23.4344 98.6108 24.3113 100.29 25.889C101.97 27.4668 102.984 29.6264 103.125 31.9266C105.185 30.8987 107.559 30.696 109.763 31.3599C111.967 32.0237 113.835 33.504 114.984 35.4984L120 44.1938C121.145 46.1891 121.488 48.5451 120.959 50.784C120.431 53.0229 119.071 54.977 117.155 56.25C119.069 57.5236 120.427 59.4772 120.955 61.7149C121.482 63.9527 121.139 66.3072 119.995 68.3016L114.966 77.0063C113.815 78.999 111.947 80.4776 109.743 81.1405C107.539 81.8033 105.166 81.6005 103.106 80.5734C102.966 82.8704 101.954 85.0273 100.279 86.6045C98.6029 88.1818 96.3888 89.0609 94.0876 89.0625V89.0625ZM84.3751 79.6875H93.7501C93.8071 78.159 94.251 76.67 95.0402 75.3598C95.8293 74.0496 96.9379 72.9609 98.2622 72.1957C99.5866 71.4305 101.083 71.0138 102.613 70.9845C104.142 70.9551 105.654 71.3142 107.006 72.0281L111.694 63.9047C110.398 63.0914 109.33 61.9624 108.589 60.6236C107.849 59.2848 107.461 57.7799 107.461 56.25C107.461 54.7201 107.849 53.2152 108.589 51.8764C109.33 50.5376 110.398 49.4086 111.694 48.5953L107.006 40.4719C105.654 41.1858 104.142 41.5449 102.613 41.5156C101.083 41.4862 99.5866 41.0695 98.2622 40.3043C96.9379 39.5391 95.8293 38.4504 95.0402 37.1402C94.251 35.83 93.8071 34.341 93.7501 32.8125H84.3751C84.3172 34.3406 83.8728 35.829 83.0833 37.1386C82.2939 38.4482 81.1852 39.5362 79.861 40.3009C78.5367 41.0656 77.0402 41.4819 75.5113 41.511C73.9824 41.5401 72.4712 41.1809 71.1188 40.4672L66.4313 48.5953C67.7271 49.4086 68.7953 50.5376 69.5357 51.8764C70.276 53.2152 70.6644 54.7201 70.6644 56.25C70.6644 57.7799 70.276 59.2848 69.5357 60.6236C68.7953 61.9624 67.7271 63.0914 66.4313 63.9047L71.1188 72.0328C72.4712 71.3191 73.9824 70.9599 75.5113 70.989C77.0402 71.0181 78.5367 71.4345 79.861 72.1991C81.1852 72.9638 82.2939 74.0518 83.0833 75.3614C83.8728 76.671 84.3172 78.1595 84.3751 79.6875V79.6875Z" fill="#77ACF1"/>
<path d="M89.0625 65.625C87.2083 65.625 85.3957 65.0752 83.854 64.045C82.3123 63.0149 81.1107 61.5507 80.4011 59.8377C79.6916 58.1246 79.5059 56.2396 79.8676 54.421C80.2294 52.6025 81.1223 50.932 82.4334 49.6209C83.7445 48.3098 85.415 47.4169 87.2335 47.0551C89.0521 46.6934 90.9371 46.8791 92.6502 47.5886C94.3632 48.2982 95.8274 49.4998 96.8575 51.0415C97.8877 52.5832 98.4375 54.3958 98.4375 56.25C98.4375 58.7364 97.4498 61.121 95.6916 62.8791C93.9335 64.6373 91.5489 65.625 89.0625 65.625Z" fill="#77ACF1"/>
</g>
<defs>
<clipPath id="clip0_43_33">
<rect width="150" height="150" fill="white"/>
</clipPath>
</defs>
</svg>
