<svg width="150" height="150" viewBox="0 0 150 150" fill="none" xmlns="http://www.w3.org/2000/svg">
<g clip-path="url(#clip0_44_249)">
<path d="M142.236 25.8105V118.301H7.76367V25.8105C7.76367 21.0937 11.5723 17.2559 16.3184 17.2559H133.711C138.428 17.2559 142.236 21.0937 142.236 25.8105Z" fill="#D3D9D9"/>
<path d="M142.236 25.8105V118.301H133.711V25.8105C133.711 21.0937 129.873 17.2559 125.156 17.2559H133.682C138.428 17.2559 142.236 21.0937 142.236 25.8105Z" fill="#A8B2B4"/>
<path d="M24.8145 17.2559C20.0977 17.2559 16.2598 21.0937 16.2598 25.8105V118.301H7.76367V25.8105C7.76367 21.0937 11.5723 17.2559 16.2891 17.2559H24.8145V17.2559Z" fill="#EDEDED"/>
<path d="M63.4863 81.3574L84.8731 52.5L111.562 67.0605L133.74 43.1836V28.1543C133.74 26.8359 132.686 25.7812 131.396 25.7812H18.6328C17.3437 25.7812 16.2598 26.8359 16.2598 28.1543V92.3731L38.3789 69.7559L63.4863 81.3574Z" fill="#FB8A8A"/>
<path d="M111.562 67.0898L84.8731 52.5293L63.4863 81.3574L38.3789 69.7559L16.2598 92.373V109.775H133.74V43.2129L111.562 67.0898Z" fill="#FCB1B1"/>
<path d="M148.828 118.301V124.014C148.828 128.818 144.932 132.744 140.098 132.744H9.90234C5.06836 132.744 1.17188 128.848 1.17188 124.014V118.301H148.828Z" fill="#A8B2B4"/>
<path d="M18.4277 132.744H9.87305C5.06836 132.744 1.17188 128.848 1.17188 124.014V118.301H9.72656V124.014C9.72656 128.848 13.623 132.744 18.4277 132.744Z" fill="#D3D9D9"/>
<path d="M148.828 118.301V124.014C148.828 128.818 144.932 132.744 140.098 132.744H131.543C136.348 132.744 140.273 128.848 140.273 124.014V118.301H148.828Z" fill="#7C8B8E"/>
<path d="M96.2109 118.301V122.402C96.2109 123.838 95.0391 124.98 93.6328 124.98H56.3965C54.9609 124.98 53.8184 123.809 53.8184 122.402V118.301H96.2109Z" fill="white"/>
<path d="M96.2109 118.301V122.432C96.2109 123.867 95.0391 125.01 93.6328 125.01H86.7188C88.1543 125.01 89.2969 123.867 89.2969 122.432V118.301H96.2109Z" fill="#EDEDED"/>
<path d="M43.5059 69.7852C43.5059 72.7148 41.1035 75.1172 38.1738 75.1172C35.2441 75.1172 32.8418 72.7441 32.8418 69.7852C32.8418 66.8262 35.2441 64.4531 38.1738 64.4531C41.1035 64.4531 43.5059 66.8555 43.5059 69.7852Z" fill="white"/>
<path d="M90.3223 52.5C90.3223 55.4297 87.9492 57.832 84.9902 57.832C82.0313 57.832 79.6582 55.4297 79.6582 52.5C79.6582 49.5703 82.0313 47.168 84.9902 47.168C87.9492 47.168 90.3223 49.5703 90.3223 52.5Z" fill="white"/>
<path d="M116.895 67.0898C116.895 70.0195 114.521 72.4219 111.562 72.4219C108.604 72.4219 106.23 70.0195 106.23 67.0898C106.23 64.1602 108.604 61.7578 111.562 61.7578C114.521 61.7578 116.895 64.1602 116.895 67.0898Z" fill="white"/>
<path d="M68.877 81.3281C68.877 84.2578 66.4746 86.6602 63.5449 86.6602C60.5859 86.6602 58.2129 84.2578 58.2129 81.3281C58.2129 78.3984 60.5859 75.9961 63.5449 75.9961C66.4746 75.9961 68.877 78.3984 68.877 81.3281Z" fill="white"/>
<path d="M43.5059 69.7852C43.5059 72.7148 41.1035 75.1172 38.1738 75.1172C35.918 75.1172 34.0137 73.7109 33.2227 71.7481C33.8379 71.9824 34.5117 72.1289 35.2148 72.1289C38.1445 72.1289 40.5469 69.7559 40.5469 66.7969C40.5469 66.0938 40.4297 65.4492 40.166 64.834C42.1289 65.625 43.5059 67.5586 43.5059 69.7852Z" fill="#EDEDED"/>
<path d="M90.3223 52.5C90.3223 55.4297 87.9492 57.832 84.9902 57.832C82.7344 57.832 80.8301 56.4258 80.0391 54.4629C80.6543 54.7266 81.2988 54.8438 82.0019 54.8438C84.9316 54.8438 87.334 52.4414 87.334 49.5117C87.334 48.8086 87.1875 48.1348 86.9531 47.5195C88.9453 48.3398 90.3223 50.2734 90.3223 52.5Z" fill="#EDEDED"/>
<path d="M116.895 67.0898C116.895 70.0195 114.521 72.4219 111.562 72.4219C109.307 72.4219 107.402 71.0449 106.611 69.082C107.227 69.3164 107.9 69.4629 108.574 69.4629C111.504 69.4629 113.906 67.0605 113.906 64.1309C113.906 63.4277 113.76 62.7539 113.525 62.1387C115.488 62.9297 116.895 64.8633 116.895 67.0898Z" fill="#EDEDED"/>
<path d="M68.877 81.3281C68.877 84.2578 66.4746 86.6601 63.5449 86.6601C61.2891 86.6601 59.3848 85.2539 58.5938 83.291C59.209 83.5547 59.8535 83.6719 60.5566 83.6719C63.4863 83.6719 65.8887 81.2695 65.8887 78.3398C65.8887 77.6367 65.7715 76.9922 65.5078 76.377C67.4707 77.168 68.877 79.0723 68.877 81.3281Z" fill="#EDEDED"/>
<path d="M148.828 117.158H143.408V25.8105C143.408 20.4492 139.043 16.084 133.682 16.084H16.2891C10.9277 16.084 6.5625 20.4492 6.5625 25.8105V117.129H1.17188C0.527344 117.129 0 117.656 0 118.301V124.014C0 129.463 4.42383 133.916 9.90234 133.916H140.127C145.576 133.916 150.029 129.492 150.029 124.014V118.301C150 117.656 149.473 117.158 148.828 117.158ZM54.9609 119.502H95.0098V122.432C95.0098 123.223 94.3652 123.838 93.6035 123.838H56.3965C55.6055 123.838 54.9902 123.193 54.9902 122.432V119.502H54.9609ZM8.93555 25.8105C8.93555 21.7383 12.2461 18.4277 16.3184 18.4277H133.711C137.783 18.4277 141.094 21.7383 141.094 25.8105V117.129H8.93555V25.8105ZM147.656 124.014C147.656 128.174 144.258 131.572 140.098 131.572H9.90234C5.74219 131.572 2.34375 128.174 2.34375 124.014V119.473H52.6172V122.402C52.6172 124.482 54.3164 126.152 56.3672 126.152H93.6035C95.6836 126.152 97.3535 124.453 97.3535 122.402V119.473H147.656V124.014Z" fill="#333333"/>
<path d="M131.367 24.6387H18.6328C16.6992 24.6387 15.0879 26.2207 15.0879 28.1836V109.805C15.0879 110.449 15.6152 110.977 16.2598 110.977H133.711C134.355 110.977 134.883 110.449 134.883 109.805V28.1543C134.912 26.2207 133.33 24.6387 131.367 24.6387ZM18.6328 26.9824H131.367C132.012 26.9824 132.539 27.5098 132.539 28.1836V42.7734L115.02 61.6406C114.023 60.9961 112.822 60.6152 111.533 60.6152C109.482 60.6152 107.666 61.5527 106.494 63.0176L91.1133 54.6094C91.3477 53.9355 91.4648 53.2324 91.4648 52.5C91.4648 48.9258 88.5645 45.9961 84.9609 45.9961C81.3867 45.9961 78.457 48.9258 78.457 52.5C78.457 54.1699 79.1016 55.6934 80.1563 56.8652L66.3574 75.4981C65.5078 75.0879 64.541 74.8242 63.5156 74.8242C61.3184 74.8242 59.3555 75.9375 58.1836 77.6367L44.502 71.3086C44.6191 70.8398 44.6777 70.3418 44.6777 69.8145C44.6777 66.2402 41.748 63.3106 38.1738 63.3106C34.5996 63.3106 31.6699 66.2402 31.6699 69.8145C31.6699 71.25 32.1387 72.5684 32.9297 73.6523L17.4316 89.5313V28.1543C17.4316 27.5098 17.9883 26.9824 18.6328 26.9824ZM111.562 62.9297C113.848 62.9297 115.723 64.8047 115.723 67.0898C115.723 69.375 113.848 71.25 111.562 71.25C109.277 71.25 107.402 69.375 107.402 67.0898C107.402 64.8047 109.277 62.9297 111.562 62.9297ZM80.8594 52.5C80.8594 50.2148 82.7344 48.3398 85.0195 48.3398C87.3047 48.3398 89.1797 50.2148 89.1797 52.5C89.1797 54.7852 87.3047 56.6602 85.0195 56.6602C82.7051 56.6602 80.8594 54.8145 80.8594 52.5ZM63.5449 77.168C65.8301 77.168 67.7051 79.043 67.7051 81.3281C67.7051 83.6133 65.8301 85.4883 63.5449 85.4883C61.2598 85.4883 59.3848 83.6133 59.3848 81.3281C59.3848 79.043 61.2305 77.168 63.5449 77.168ZM34.0137 69.7852C34.0137 67.5 35.8887 65.625 38.1738 65.625C40.459 65.625 42.334 67.5 42.334 69.7852C42.334 72.0703 40.459 73.9453 38.1738 73.9453C35.8887 73.9453 34.0137 72.0996 34.0137 69.7852ZM17.4316 108.604V92.8418L34.6289 75.2344C35.6543 75.9082 36.8555 76.2891 38.1738 76.2891C40.4004 76.2891 42.3926 75.1465 43.5645 73.4473L57.2461 79.7754C57.1289 80.2734 57.041 80.8008 57.041 81.3281C57.041 84.9023 59.9707 87.832 63.5449 87.832C67.1191 87.832 70.0488 84.9023 70.0488 81.3281C70.0488 79.5996 69.375 78.0469 68.291 76.875L82.0605 58.3008C82.9395 58.7402 83.9356 59.0039 85.0195 59.0039C87.041 59.0039 88.8281 58.0957 90.0293 56.6602L105.41 65.0684C105.205 65.7129 105.088 66.3867 105.088 67.0898C105.088 70.6641 108.018 73.5938 111.592 73.5938C115.166 73.5938 118.096 70.6641 118.096 67.0898C118.096 65.625 117.598 64.2773 116.807 63.1934L132.598 46.1719V108.604H17.4316V108.604Z" fill="#333333"/>
</g>
<defs>
<clipPath id="clip0_44_249">
<rect width="150" height="150" fill="white"/>
</clipPath>
</defs>
</svg>
